<?xml version="1.0" encoding="UTF-8"?>
<svg  data-name="Layer 2" xmlns="http://www.w3.org/2000/svg" viewBox="0 0 119.5 143.56">
  <defs>
    <style>
      .cls-1 {
        fill: #f3f0ee;
        stroke-width: 0px;
      }
    </style>
  </defs>
  <g  data-name="Layer 1">
    <g>
      <path class="cls-1" d="m118.25,71.79c-.03,14.26-3.49,28.53-10.66,40.91-6.4,11.03-15.81,20.48-27.5,25.79s-24.63,5.83-36.53,1.66-22.11-12.97-29.16-23.49c-7.8-11.64-12.09-25.43-12.98-39.37s1.73-29.11,8.15-42.08c5.72-11.55,14.5-21.79,25.83-28.12C46.4.93,59.41-.99,71.66,2.11s22.84,10.87,30.54,20.75c8.52,10.93,13.64,24.3,15.37,37.99.46,3.63.68,7.28.69,10.93,0,.45,1.25.43,1.25-.03-.03-14.65-3.67-29.35-11.22-41.96-6.61-11.03-16.27-20.44-28.15-25.58-11.54-5-24.68-5.6-36.61-1.58S21.12,15.29,13.85,25.75C5.64,37.57,1.12,51.77.19,66.08s1.8,29.83,8.49,43.05c5.9,11.66,14.95,21.91,26.52,28.17,11.11,6.01,24.19,7.83,36.49,4.85,12.41-3.01,23.22-10.66,31.14-20.57,8.81-11.02,14.11-24.58,15.94-38.52.49-3.75.73-7.52.73-11.3,0-.45-1.25-.43-1.25.03Z"/>
      <g>
        <path class="cls-1" d="m35.96,97.28c.43,1.13,1.27,1.94,2.52,2.41,1.25.47,3.13.7,5.63.7h9.38c7.66,0,12.16-4.69,13.49-14.07,0-.16.16-.23.47-.23.23,0,.45.04.65.12.19.08.29.2.29.35-.55,3.36-.82,7.97-.82,13.84,0,.63-.14,1.08-.41,1.35-.27.27-.72.41-1.35.41H20.19c-.16,0-.23-.23-.23-.7s.08-.7.23-.7c2.66,0,4.61-.19,5.86-.59,1.25-.39,2.09-1.15,2.52-2.29.43-1.13.65-2.87.65-5.22v-35.89c0-2.35-.22-4.06-.65-5.16-.43-1.09-1.27-1.86-2.52-2.29-1.25-.43-3.21-.64-5.86-.64-.16,0-.23-.23-.23-.7s.08-.7.23-.7l5.16.12c2.81.16,5.08.23,6.8.23,1.95,0,4.34-.08,7.15-.23l4.93-.12c.16,0,.23.23.23.7s-.08.7-.23.7c-2.66,0-4.59.22-5.81.64-1.21.43-2.03,1.21-2.46,2.35-.43,1.13-.65,2.87-.65,5.22v35.3c0,2.27.21,3.97.65,5.1Z"/>
        <g>
          <path class="cls-1" d="m99.55,42.79c0,1.14-1.15,2.79-3.44,4.94-2.29,2.15-5.09,4.21-8.4,6.19-.43,1.35-1.06,3.82-1.89,7.38-1.33,5.59-2.56,9.55-3.67,11.89-1.12,2.34-2.96,4.72-5.53,7.15-7.42,7.01-15.72,10.52-24.92,10.52-2.64,0-4.97-.44-6.99-1.32-1.12,2.19-1.68,4.09-1.68,5.71,0,2.05.68,3.93,2.05,5.64.14.14.21.31.21.5s-.12.29-.36.29c-.55,0-1.14-.74-1.78-2.21-.63-1.48-.95-2.86-.95-4.14,0-1.86.61-3.9,1.82-6.14-4.97-2.57-7.45-6.98-7.45-13.23,0-4.02,1.19-8.01,3.57-11.98,2.38-3.97,5.72-7.55,10.02-10.73,5.49-4.04,10.92-6.06,16.29-6.06,2.92,0,5.25.82,6.97,2.46,1.72,1.64,2.59,3.86,2.59,6.67,0,1.5-.21,3.05-.64,4.67,3.49-2.33,6.58-4.3,9.27-5.92,1.71-3.73,3.86-6.94,6.45-9.63,2.59-2.69,4.85-4.03,6.77-4.03,1.12,0,1.68.46,1.68,1.39Zm-24.17,13.37c0-2.5-.79-4.5-2.37-6.03-1.58-1.52-3.67-2.28-6.26-2.28-6.39,0-12.58,3.33-18.56,9.98-5.98,6.66-8.97,13.55-8.97,20.68,0,4.68,1.72,8.01,5.17,9.98,1.62-2.66,3.93-5.57,6.95-8.74-1.57-1.35-2.35-2.97-2.35-4.85,0-1.43.45-2.64,1.35-3.65.9-1.01,2-1.52,3.28-1.52,1.59,0,2.39.74,2.39,2.21,0,.76-.3,1.42-.89,1.98-.59.56-1.3.84-2.1.84-1.16,0-1.75-.56-1.75-1.68,0-.36.12-.74.36-1.14.09-.31.14-.49.14-.53,0-.14-.07-.21-.21-.21-.4,0-.82.43-1.25,1.28s-.64,1.7-.64,2.53c0,1.57.72,2.97,2.17,4.21,4.78-5.04,12.32-10.92,22.64-17.65.59-2.09.89-3.9.89-5.42Zm8.84-.14c-2.78,1.76-5.82,3.76-9.13,5.99-1.57,5.04-4.32,9.46-8.25,13.26-3.93,3.8-7.71,5.7-11.32,5.7-1.09,0-2.29-.29-3.6-.86-2.69,2.78-4.97,5.7-6.85,8.77,1.95.88,4.16,1.32,6.63,1.32,4.47,0,8.79-1.27,12.98-3.8,4.18-2.53,7.77-6.04,10.77-10.54,1.4-2.09,2.51-4.03,3.32-5.83.81-1.79,2.12-5.18,3.92-10.14.43-1.24.94-2.53,1.53-3.89Zm-10.09,6.56l-2.35,1.6c-8.96,6.18-15.43,11.33-19.4,15.44,1,.52,2.07.78,3.21.78,3.33,0,6.81-1.75,10.45-5.24,3.64-3.49,6.33-7.69,8.09-12.59Zm24.74-19.72c0-.57-.33-.86-1-.86-1.59,0-3.37,1.1-5.33,3.3-1.96,2.2-3.48,4.77-4.55,7.72,3.14-1.93,5.73-3.85,7.79-5.78,2.06-1.93,3.08-3.39,3.08-4.39Z"/>
          <path class="cls-1" d="m44.94,102.03c-.72,0-1.39-.77-2.1-2.43-.65-1.51-.98-2.95-.98-4.28,0-1.82.57-3.84,1.69-6-4.86-2.65-7.33-7.14-7.33-13.38,0-4.06,1.22-8.15,3.62-12.16,2.39-3.99,5.79-7.64,10.11-10.84,5.53-4.07,11.08-6.13,16.5-6.13,3,0,5.43.86,7.22,2.56,1.79,1.7,2.7,4.03,2.7,6.92,0,1.25-.15,2.55-.44,3.87,3.15-2.09,5.99-3.89,8.44-5.37,1.71-3.71,3.89-6.95,6.48-9.63,2.69-2.78,4.99-4.14,7.03-4.14,1.77,0,2.03,1.09,2.03,1.75,0,1.25-1.16,2.95-3.55,5.2-2.28,2.14-5.08,4.21-8.34,6.16-.42,1.37-1.04,3.8-1.84,7.23-1.33,5.58-2.57,9.61-3.7,11.96-1.13,2.37-3.02,4.81-5.6,7.25-7.45,7.04-15.92,10.62-25.17,10.62-2.54,0-4.83-.41-6.82-1.22-.99,2.01-1.49,3.77-1.49,5.26,0,1.96.66,3.78,1.97,5.42.18.18.29.44.29.72s-.19.64-.71.64Zm20.04-54.45c-4.8.34-9.71,2.33-14.61,5.94-4.24,3.14-7.58,6.72-9.93,10.63-2.33,3.9-3.52,7.86-3.52,11.8,0,6.08,2.44,10.42,7.26,12.91l.32.17-.17.32c-1.18,2.17-1.78,4.18-1.78,5.97,0,1.23.31,2.58.92,4,.79,1.83,1.3,2,1.45,2-.01-.07-.05-.12-.1-.18-1.44-1.8-2.15-3.77-2.15-5.89,0-1.67.58-3.65,1.71-5.87l.15-.3.31.13c.36.16.74.3,1.13.43-.36-.13-.71-.27-1.06-.43l-.37-.17.21-.34c.95-1.56,2.02-3.09,3.19-4.58-1.3,1.6-2.39,3.12-3.26,4.56l-.18.29-.3-.17c-3.55-2.03-5.35-5.49-5.35-10.29,0-7.19,3.05-14.22,9.06-20.92,5.47-6.09,11.2-9.46,17.06-10.02Zm19.93,7.72l-.38.86c-.59,1.33-1.1,2.63-1.52,3.86-1.8,4.96-3.13,8.38-3.93,10.17-.81,1.81-1.94,3.79-3.35,5.88-3.01,4.51-6.67,8.1-10.88,10.64-3.24,1.96-6.6,3.18-10.03,3.64,7.85-.72,15.09-4.17,21.55-10.28,2.52-2.38,4.36-4.75,5.45-7.04,1.1-2.31,2.33-6.29,3.65-11.82.82-3.53,1.46-6.02,1.89-7.39l-.05.03.35-.95c1.08-2.97,2.63-5.61,4.62-7.83.77-.87,1.52-1.57,2.23-2.1-.99.65-2.04,1.55-3.16,2.71-2.55,2.64-4.7,5.85-6.39,9.53l-.05.1Zm-39.33,33.42c1.81.75,3.86,1.13,6.11,1.13,4.38,0,8.69-1.26,12.79-3.75,4.12-2.49,7.7-6,10.66-10.43,1.38-2.06,2.49-4.01,3.29-5.78.8-1.78,2.12-5.18,3.91-10.12.32-.92.68-1.87,1.09-2.85-2.49,1.59-5.19,3.37-8.05,5.3-1.59,5.03-4.38,9.5-8.31,13.29-3.98,3.85-7.88,5.8-11.57,5.8-1.07,0-2.26-.27-3.52-.79-2.48,2.59-4.64,5.35-6.41,8.19Zm21.16-40.52c-6.26,0-12.41,3.32-18.29,9.87-5.89,6.56-8.88,13.44-8.88,20.44,0,4.39,1.58,7.58,4.7,9.5,1.57-2.52,3.77-5.28,6.56-8.23-1.46-1.37-2.2-3.01-2.2-4.87,0-1.51.49-2.82,1.45-3.89.97-1.08,2.16-1.63,3.54-1.63,2.27,0,2.74,1.4,2.74,2.57,0,.86-.34,1.61-1,2.24-.66.62-1.45.93-2.35.93-1.36,0-2.1-.72-2.1-2.03,0-.41.13-.84.38-1.28.02-.06.04-.12.05-.17-.17.11-.41.38-.73,1.01-.4.8-.6,1.6-.6,2.37,0,1.38.59,2.6,1.8,3.72,4.77-4.97,12.29-10.81,22.36-17.38.56-2,.84-3.74.84-5.2,0-2.38-.76-4.32-2.26-5.77-1.51-1.45-3.53-2.18-6.01-2.18Zm-13.77,31.31c.82.36,1.7.54,2.61.54,3.22,0,6.65-1.73,10.2-5.14,3.32-3.19,5.88-7.02,7.61-11.4l-1.43.97c-8.64,5.96-15.03,11.02-19,15.04Zm-2.82-1.65c.35.58.83,1.12,1.42,1.63l.24.2.02-.02-.21-.18c-.6-.51-1.09-1.06-1.45-1.63Zm18.6-12.01c-5.01,3.48-9.21,6.72-12.57,9.7,3.28-2.86,7.49-6.1,12.57-9.7Zm-17.2,4.99c.34,0,.57.23.57.57,0,.07-.01.16-.16.64l-.03.08c-.2.35-.31.67-.31.96,0,.93.42,1.32,1.39,1.32.72,0,1.33-.24,1.86-.74.52-.49.78-1.06.78-1.72,0-1.28-.63-1.86-2.03-1.86-.91,0-1.7.27-2.39.81.11-.04.22-.06.33-.06Zm-1.61,1.58c-.26.47-.43.99-.52,1.54.1-.51.28-1.03.52-1.54Zm24.84-10.62l-.32.89c-1.13,3.16-2.67,6.05-4.59,8.64,2.18-2.86,3.82-6.02,4.88-9.44l.03-.09Zm23.09-19.45c-1.48,0-3.18,1.07-5.07,3.18-1.7,1.91-3.08,4.13-4.1,6.62,2.71-1.72,5-3.46,6.84-5.17,2.46-2.3,2.97-3.51,2.97-4.13,0-.25-.05-.5-.64-.5Z"/>
        </g>
      </g>
      <g>
        <g>
          <path class="cls-1" d="m73.97,93.28c-.1,0-.21-.01-.35-.02-.14,0-.3,0-.47,0h-.66c-.12.02-.28.02-.48.02-.01,0-.02-.02-.02-.05s0-.05.02-.05c.19,0,.33-.01.42-.04.09-.03.15-.09.18-.17.03-.09.05-.22.05-.4v-4.14c0-.18-.02-.31-.05-.39s-.09-.14-.18-.17-.22-.05-.41-.05c-.02,0-.03-.02-.03-.05s0-.05.03-.05h.47c.27.02.49.03.65.03.24,0,.49,0,.75-.03.31-.01.52-.02.63-.02.6,0,1.14.12,1.6.36.47.24.83.56,1.09.97.26.41.38.87.38,1.38,0,.58-.13,1.09-.4,1.53-.27.44-.62.79-1.07,1.03-.45.24-.94.36-1.48.36-.19,0-.42,0-.68-.03Zm1.6-.47c.29-.19.52-.48.68-.86.16-.38.25-.84.25-1.37s-.08-.97-.23-1.38c-.16-.41-.38-.74-.66-.98s-.62-.36-.99-.36-.62.04-.76.11c-.14.07-.21.22-.21.46v4.02c0,.24.06.41.19.5.13.1.37.15.72.15.38,0,.72-.1,1.01-.29Z"/>
          <path class="cls-1" d="m78.73,93.22s0-.05.02-.05c.17,0,.3-.01.38-.04.08-.03.13-.09.16-.17.03-.09.04-.22.04-.4v-2.73c0-.18-.02-.31-.04-.39-.03-.08-.08-.14-.17-.17s-.2-.05-.37-.05c-.01,0-.02-.02-.02-.05s0-.05.02-.05h3.2c.06,0,.09.02.09.07v.55c.01.11.02.26.02.43,0,.02-.02.03-.05.03s-.05,0-.06-.03c-.11-.26-.29-.48-.52-.67-.23-.18-.47-.27-.71-.27h-.06c-.13,0-.23.02-.29.05s-.1.09-.13.17c-.02.08-.03.21-.03.39v2.69c0,.18.01.31.03.39s.06.14.13.17c.06.03.16.05.29.05h.1c.28,0,.56-.1.83-.3.27-.2.48-.45.61-.75.01-.02.03-.03.06-.03s.04,0,.04.03c-.04.43-.06.78-.06,1.05,0,.05,0,.08-.03.1-.02.02-.05.03-.11.03h-3.36s-.02-.02-.02-.05Zm2.42-1.91c-.26-.04-.7-.05-1.33-.05v-.22c.63,0,1.07-.02,1.33-.05.26-.03.4-.05.43-.05.04,0,.06.07.06.2,0,.06,0,.11-.02.16-.01.05-.03.07-.04.07-.03,0-.17-.02-.43-.05Z"/>
          <path class="cls-1" d="m84.86,92.92c.04.09.11.15.22.19.11.04.28.05.51.05.02,0,.03.02.03.05s0,.05-.03.05c-.23,0-.4,0-.53,0h-.71s-.58,0-.58,0c-.11,0-.26,0-.45,0-.01,0-.02-.02-.02-.05s0-.05.02-.05c.17,0,.29-.02.37-.05s.14-.09.17-.17c.03-.08.04-.21.04-.39v-2.73c0-.17-.02-.3-.05-.39-.03-.09-.09-.15-.17-.18-.08-.03-.2-.05-.36-.05-.01,0-.02-.02-.02-.05s0-.05.02-.05h.44c.25.02.44.03.58.03.16,0,.32,0,.48-.03.07,0,.16-.01.28-.02.12,0,.23,0,.32,0,.51,0,.9.08,1.17.25.27.17.4.42.4.75,0,.3-.07.55-.22.76-.15.21-.34.36-.57.47-.24.1-.48.16-.75.16-.11,0-.18,0-.21-.02-.02-.01-.03-.03-.03-.06,0-.04.02-.05.06-.05h.13c.18,0,.32-.08.42-.25.1-.18.16-.44.16-.79,0-.37-.07-.64-.2-.8-.13-.16-.32-.25-.58-.25-.15,0-.26.04-.33.12-.07.08-.1.24-.1.49v2.68c0,.18.02.32.06.41Z"/>
          <path class="cls-1" d="m91.66,89.43c-.12-.15-.31-.23-.58-.23-.02,0-.03-.02-.03-.05s0-.05.03-.05h.38c.2.02.37.03.49.03.09,0,.24,0,.43-.02h.37s.02,0,.02.04,0,.05-.02.05c-.24,0-.41.07-.52.22s-.16.38-.16.71v1.5c0,.55-.15.99-.46,1.29-.3.31-.71.46-1.23.46-.33,0-.64-.07-.92-.2s-.51-.33-.68-.58-.25-.55-.25-.89v-1.9c0-.18-.01-.31-.04-.39s-.08-.14-.16-.17-.2-.05-.37-.05c-.02,0-.03-.02-.03-.05s0-.05.03-.05h.43c.24.02.43.03.57.03.16,0,.36,0,.6-.02h.43s.02,0,.02.04,0,.05-.02.05c-.17,0-.29.02-.37.05-.08.04-.14.1-.17.18-.03.09-.04.22-.04.4v1.65c0,.53.11.92.34,1.17s.53.37.9.37.66-.12.88-.36c.22-.24.33-.58.33-1.02v-1.52c0-.32-.06-.55-.18-.7Z"/>
          <path class="cls-1" d="m95.09,92.95c.03.09.08.14.16.17.08.03.2.04.38.04.01,0,.02.02.02.05s0,.05-.02.05c-.18,0-.33,0-.43,0h-.61s-.58,0-.58,0c-.11,0-.26,0-.45,0-.01,0-.02-.02-.02-.05s0-.05.02-.05c.17,0,.3-.01.38-.04.08-.03.14-.09.17-.17.03-.09.04-.22.04-.4v-2.73c0-.18-.02-.31-.04-.39-.03-.08-.08-.14-.17-.17s-.21-.05-.38-.05c-.01,0-.02-.02-.02-.05s0-.05.02-.05h.45c.24.02.43.03.58.03.16,0,.37,0,.62-.02h.42s.02,0,.02.04,0,.05-.02.05c-.17,0-.29.02-.37.05-.08.04-.14.1-.17.18-.03.09-.04.22-.04.4v2.72c0,.18.02.31.04.4Z"/>
          <path class="cls-1" d="m97.81,90.19c.09.12.21.23.34.31.13.09.32.19.55.31.27.14.48.26.63.36.15.1.28.22.39.38.11.16.17.34.17.55,0,.24-.07.45-.21.65-.14.19-.33.35-.58.46s-.52.17-.82.17c-.27,0-.54-.03-.8-.1-.26-.07-.44-.14-.54-.23-.05-.03-.07-.09-.07-.19l-.04-1.01s.01-.04.04-.04c.03,0,.05,0,.06.03.23.39.46.71.69.96s.5.38.8.38c.18,0,.33-.05.45-.16s.18-.27.18-.48c0-.19-.05-.36-.15-.5-.1-.14-.22-.26-.36-.36-.14-.1-.33-.21-.57-.34-.35-.19-.62-.37-.8-.54-.18-.17-.28-.39-.28-.67,0-.35.15-.62.46-.83.3-.21.67-.31,1.1-.31.19,0,.39.02.6.06.21.04.38.09.5.14.05.02.09.04.11.07.02.03.03.06.03.11v.85s-.02.03-.04.04c-.03,0-.05,0-.06-.01-.11-.24-.27-.47-.47-.71-.2-.23-.47-.35-.8-.35-.2,0-.35.05-.46.16-.1.1-.15.24-.15.41s.05.31.14.43Z"/>
        </g>
        <g>
          <path class="cls-1" d="m72.03,100.4s0-.05.03-.05c.2,0,.34-.02.44-.05.09-.03.16-.09.2-.17.04-.08.05-.21.05-.39v-2.44c0-.33-.1-.49-.31-.49-.11,0-.23.03-.38.09h-.02s-.04,0-.05-.04c-.01-.03,0-.05.02-.05l1.53-.64h.02s.03,0,.04.02.02.03.02.04v3.51c0,.18.02.32.04.4.03.08.09.14.18.17.09.03.24.04.45.04.01,0,.02.02.02.05s0,.05-.02.05c-.2,0-.35,0-.46,0h-.66s-.65,0-.65,0c-.11,0-.27,0-.46,0-.02,0-.03-.02-.03-.05Z"/>
          <path class="cls-1" d="m75.85,98.55c-.2-.24-.3-.53-.3-.88,0-.29.07-.55.22-.78s.36-.41.63-.53c.27-.13.57-.19.92-.19.36,0,.69.09.99.28.3.19.53.45.69.79.17.34.25.72.25,1.14,0,.53-.13,1.04-.39,1.54s-.64.92-1.14,1.26c-.5.35-1.09.56-1.76.64-.02,0-.04,0-.05-.04,0-.03,0-.05.02-.05.49-.11.91-.32,1.25-.65.35-.33.61-.71.79-1.16.18-.45.26-.9.26-1.37,0-.38-.04-.73-.13-1.06-.09-.33-.22-.6-.38-.8-.16-.2-.35-.3-.56-.3s-.36.09-.44.27c-.09.18-.13.44-.13.79,0,.37.05.66.15.87.1.21.25.32.45.32.1,0,.19-.02.28-.06.08-.04.18-.12.28-.22,0,0,.02,0,.03,0,.02,0,.03,0,.05.03.01.02.02.03.01.04-.13.17-.28.29-.46.38-.18.09-.38.13-.6.13-.41,0-.71-.12-.91-.36Z"/>
          <path class="cls-1" d="m80.16,100.35s-.01-.05,0-.07l3.08-4.09s.03-.03.05-.03c.02,0,.04,0,.05.02.02.01.03.03.03.04v5.44c0,.06-.02.1-.07.13l-.7.35-.05.02s-.03-.02-.03-.07v-4.64l.7-.74-2.51,3.31s0,.06.04.06c1.09,0,2.16-.02,3.22-.05.02,0,.04.05.04.16,0,.06,0,.12-.02.17-.01.06-.02.08-.04.08-.47-.02-.97-.04-1.51-.05-.54,0-1.28-.01-2.23-.01-.03,0-.05-.01-.06-.04Z"/>
          <path class="cls-1" d="m86.73,101.59l-.94.28h0s-.03,0-.04-.02-.02-.03-.01-.04l2.43-4.65s0-.06-.04-.06c-.99,0-1.67.01-2.03.04s-.58.07-.68.14c-.1.07-.17.21-.23.43,0,.02-.02.03-.04.03-.02,0-.03,0-.05-.01-.01,0-.02-.02-.01-.03l.38-1.64s.03-.02.06-.01c.04,0,.05.01.04.02,0,.02,0,.05,0,.09,0,.06.03.1.08.12s.17.03.34.03h2.68s.05.01.07.04c.01.03.02.05,0,.08l-1.81,4.98c-.05.1-.11.17-.19.21Z"/>
        </g>
      </g>
    </g>
  </g>
</svg>