<?xml version="1.0" encoding="UTF-8"?>
<svg id="Layer_2" data-name="Layer 2" xmlns="http://www.w3.org/2000/svg" viewBox="0 0 47.36 46.73">
  <defs>
    <style>
      .cls-1, .cls-2 {
        stroke-width: 0px;
      }

      .cls-2 {
        fill: #b8860b;
      }
    </style>
  </defs>
  <g id="Layer_1-2" data-name="Layer 1">
    <g>
      <path class="cls-1" d="m43.63,39.28h-.65l-2.05-2.61h-24.33l-2.05,2.61h-.65c-2.05,0-3.73,1.68-3.73,3.73s1.68,3.73,3.73,3.73h29.74c2.05,0,3.73-1.68,3.73-3.73s-1.68-3.73-3.73-3.73Z"/>
      <path class="cls-1" d="m33.47,16.15c-1.12-1.12-2.7-1.58-4.2-1.31l-9.32-9.32c.28-1.49-.09-3.08-1.31-4.2-1.77-1.77-4.75-1.77-6.53,0l-5.78,5.59c-1.77,1.77-1.77,4.75,0,6.53.93.93,2.05,1.4,3.26,1.4.28,0,.65,0,.93-.09l3.36,3.36L0,32.1l2.61,2.61,13.98-13.89,3.36,3.36c-.28,1.49.09,3.08,1.31,4.2.93.93,2.05,1.4,3.26,1.4s2.33-.47,3.26-1.4l5.69-5.69c1.77-1.77,1.77-4.75,0-6.53Zm-11.47,4.75l-8.2-8.2,4.01-4.01,8.2,8.2-4.01,4.01Z"/>
      <rect class="cls-2" x="17.07" y="9" width="5.67" height="11.6" transform="translate(-4.64 18.41) rotate(-45)"/>
    </g>
  </g>
</svg>