<?xml version="1.0" encoding="UTF-8"?>
<svg id="Layer_2" data-name="Layer 2" xmlns="http://www.w3.org/2000/svg" viewBox="0 0 31.79 57.22">
  <defs>
    <style>
      .cls-1, .cls-2, .cls-3 {
        stroke-width: 0px;
      }

      .cls-2 {
        fill: #c2b2a3;
      }

      .cls-3 {
        fill: #b8860b;
      }
    </style>
  </defs>
  <g id="Layer_1-2" data-name="Layer 1">
    <g id="Layer_1-2" data-name="Layer 1-2">
      <g>
        <path class="cls-1" d="m30.79,46.3c1.33-1.37,1.33-3.54,0-4.9,1.36-1.42,1.32-3.67-.1-5.03-.66-.64-1.55-.99-2.47-.99h-.01s-7.96-.01-7.96-.01v-11.39c6.61-.61,11.47-6.46,10.86-13.07C30.5,4.3,24.65-.56,18.04.05,11.43.66,6.57,6.51,7.18,13.12c.53,5.76,5.1,10.32,10.86,10.86v8.85c-.42-.2-.88-.3-1.35-.32h-5.81c-.29,0-.57.12-.78.32L.32,42.64c-.21.21-.32.49-.32.78v12.69c0,.61.5,1.11,1.11,1.11h27.12c1.96,0,3.55-1.6,3.55-3.56,0-.92-.36-1.8-.99-2.46,1.32-1.37,1.32-3.54,0-4.9ZM12.23,18.95c-1.78-1.77-2.88-4.22-2.88-6.92h-.01c0-5.41,4.38-9.8,9.79-9.81,5.41,0,9.8,4.38,9.81,9.79,0,5.41-4.38,9.8-9.79,9.81-2.7,0-5.15-1.1-6.92-2.87Zm4.43,27.56c-.75,0-1.35-.6-1.35-1.35v-2.95c0-.61-.5-1.11-1.11-1.11s-1.11.5-1.11,1.11v2.95c0,1.54,1.01,2.91,2.48,3.38v.21c0,.91.35,1.79.99,2.45-.64.67-.99,1.56-.99,2.48,0,.46.09.91.27,1.33H2.21v-11.14l9.1-9.15h5.35c.75,0,1.35.6,1.35,1.35v9.09c0,.75-.6,1.35-1.35,1.35Zm11.56,8.5h-9.1c-.74-.06-1.3-.7-1.25-1.45.05-.67.58-1.2,1.25-1.25h9.1c.74.06,1.3.7,1.25,1.45-.05.67-.58,1.2-1.25,1.25Zm1.33-6.28c0,.75-.6,1.35-1.35,1.35h-9.06c-.75,0-1.35-.6-1.35-1.35v-.21c.64-.21,1.2-.61,1.63-1.13h8.78c.74,0,1.34.6,1.35,1.33h0Zm-1.35-3.56h-7.97v-2.68h7.97c.74,0,1.34.59,1.35,1.33,0,.75-.6,1.35-1.35,1.35Zm0-4.89h-7.96v-2.7h7.96c.75,0,1.35.6,1.35,1.35s-.6,1.35-1.35,1.35Z"/>
        <path class="cls-2" d="m19.13,2.22c-5.41.01-9.79,4.4-9.79,9.81h.01c0,2.7,1.1,5.15,2.88,6.92,1.77,1.77,4.22,2.87,6.92,2.87,5.41-.01,9.79-4.4,9.79-9.81-.01-5.41-4.4-9.79-9.81-9.79Zm.02,8.73h.22c1.52.09,2.83,1.11,3.29,2.57.61,1.94-.47,4.01-2.41,4.62v.22c0,.61-.5,1.11-1.11,1.11s-1.11-.5-1.11-1.11v-.2c-1.54-.48-2.6-1.9-2.6-3.52,0-.61.5-1.11,1.11-1.11s1.11.5,1.11,1.11c0,.82.66,1.48,1.48,1.48s1.48-.66,1.48-1.48-.67-1.48-1.48-1.48h-.23c-1.53-.09-2.86-1.13-3.31-2.6-.6-1.95.49-4.01,2.44-4.61v-.19c0-.61.5-1.11,1.11-1.11s1.11.5,1.11,1.11v.19c1.55.48,2.6,1.91,2.6,3.52,0,.61-.5,1.11-1.11,1.11s-1.11-.5-1.11-1.11c0-.82-.66-1.48-1.48-1.48s-1.48.66-1.48,1.48.67,1.48,1.48,1.48Z"/>
        <path class="cls-3" d="m22.66,13.52c.61,1.94-.47,4.01-2.41,4.62v.22c0,.61-.5,1.11-1.11,1.11s-1.11-.5-1.11-1.11v-.2c-1.54-.48-2.6-1.9-2.6-3.52,0-.61.5-1.11,1.11-1.11s1.11.5,1.11,1.11c0,.82.66,1.48,1.48,1.48s1.48-.66,1.48-1.48-.67-1.48-1.48-1.48h-.23c-1.53-.09-2.86-1.13-3.31-2.6-.6-1.95.49-4.01,2.44-4.61v-.19c0-.61.5-1.11,1.11-1.11s1.11.5,1.11,1.11v.19c1.55.48,2.6,1.91,2.6,3.52,0,.61-.5,1.11-1.11,1.11s-1.11-.5-1.11-1.11c0-.82-.66-1.48-1.48-1.48s-1.48.66-1.48,1.48.67,1.48,1.48,1.48h.22c1.52.09,2.83,1.11,3.29,2.57Z"/>
      </g>
    </g>
  </g>
</svg>