<?xml version="1.0" encoding="UTF-8"?>
<svg id="Layer_2" data-name="Layer 2" xmlns="http://www.w3.org/2000/svg" viewBox="0 0 70.87 35.61">
  <defs>
    <style>
      .cls-1, .cls-2 {
        stroke-width: 0px;
      }

      .cls-2 {
        fill: #b27f7f;
        fill-rule: evenodd;
      }
    </style>
  </defs>
  <g id="Layer_1-2" data-name="Layer 1">
    <g>
      <path class="cls-2" d="m50.28,7.98c-1.67-.84-3.54-1.22-5.41-1.11-1.47.09-2.91.47-4.23,1.12-.39-1.42-1.06-2.75-1.97-3.92-3.56-4.59-10.17-5.42-14.77-1.86-.05.04-.11.09-.16.13-3.89,3.15-4.79,8.74-2.69,16.6,1.72,6.43,5.11,13.03,6.73,16.19.09.18.24.32.42.4.18.08.38.1.58.05,3.45-.88,10.64-2.7,16.6-5.67,7.29-3.63,10.88-8,10.67-13-.16-3.8-2.37-7.22-5.77-8.94Z"/>
      <g>
        <path class="cls-1" d="m6.3.22c.4.08.77.2,1.12.37.06.03.1.06.12.09s.03.1.04.21l.18,1.68s-.02.04-.07.05c-.05,0-.08,0-.09-.04-.46-1.49-1.38-2.24-2.76-2.24-.71,0-1.33.17-1.88.5-.55.33-.97.8-1.27,1.41s-.45,1.32-.45,2.13.16,1.51.49,2.15c.33.64.77,1.14,1.33,1.5.56.36,1.17.54,1.85.54s1.27-.18,1.72-.53c.45-.35.81-.9,1.09-1.64,0-.02.03-.03.07-.03.02,0,.04,0,.06.02s.03.02.03.03l-.15,1.53c0,.11-.02.17-.04.2s-.06.06-.13.09c-.45.21-.88.35-1.29.44-.41.08-.86.13-1.35.13-.95,0-1.79-.19-2.54-.56-.74-.37-1.32-.89-1.74-1.55s-.62-1.42-.62-2.28.21-1.59.64-2.25,1.01-1.17,1.76-1.53S3.99.11,4.93.11c.52,0,.98.04,1.38.11Z"/>
        <path class="cls-1" d="m10.25,8.44c-.4-.25-.71-.6-.93-1.03s-.33-.91-.33-1.42c0-.58.14-1.08.43-1.48.29-.41.65-.71,1.1-.91.45-.2.9-.3,1.37-.3.53,0,.99.13,1.4.39.4.26.71.6.93,1.03.21.43.32.87.32,1.35,0,.55-.13,1.03-.4,1.45-.26.42-.62.74-1.05.97-.44.23-.92.34-1.44.34s-.99-.13-1.4-.38Zm2.82-.4c.24-.35.36-.88.36-1.58,0-.58-.09-1.09-.26-1.53-.18-.44-.41-.78-.72-1.01-.3-.24-.64-.36-1.02-.36-.44,0-.78.17-1.01.5-.24.34-.36.83-.36,1.48,0,.56.08,1.08.25,1.54s.4.82.7,1.09c.3.26.64.4,1.01.4.45,0,.79-.17,1.03-.52Z"/>
        <path class="cls-1" d="m16.39,8.33c-.26-.29-.4-.7-.4-1.21v-2.04c0-.33-.03-.57-.09-.72-.06-.15-.17-.23-.31-.23-.1,0-.24.04-.42.12h-.03s-.05-.02-.06-.07c-.01-.04,0-.07.02-.08l1.58-.74h.05s.06,0,.1.03c.04.03.06.06.06.09v3.13c0,.52.09.9.27,1.15.18.25.46.37.84.37.31,0,.63-.09.95-.27s.59-.43.82-.74l.07.15c-.75,1.01-1.55,1.52-2.39,1.52-.46,0-.82-.15-1.08-.44Zm4.16-.5c.07.13.18.2.34.2.13,0,.35-.06.66-.19h.01s.06.02.08.06c.02.04.01.07-.01.09l-1.66.79h-.05c-.09.01-.17-.09-.26-.31-.08-.21-.12-.5-.12-.85v-2.55c0-.33-.03-.57-.09-.72-.06-.15-.17-.23-.31-.23-.1,0-.24.04-.43.12h-.03s-.04-.02-.05-.07c0-.04,0-.07.03-.08l1.58-.74h.05s.07,0,.11.03c.04.03.05.06.05.09v3.69c0,.3.03.52.1.66Z"/>
        <path class="cls-1" d="m22.02,12.25c0-.05.01-.08.04-.08.23,0,.41-.02.52-.07.12-.05.19-.14.23-.26.04-.13.06-.32.06-.59v-6.28c0-.3-.04-.53-.11-.66s-.19-.21-.36-.21-.4.07-.68.2h-.01s-.06-.02-.09-.07c-.02-.04-.02-.07.02-.08l1.61-.78s.07-.03.09-.03c.13,0,.23.11.32.32.08.21.13.51.13.9v6.68c0,.27.03.46.09.59.06.13.18.21.36.26.18.05.46.07.83.07.03,0,.04.03.04.08s-.01.08-.04.08c-.31,0-.56,0-.74-.01h-1.01s-.75,0-.75,0c-.13,0-.3.01-.52.01-.03,0-.04-.03-.04-.08Zm2.21-3.55c-.26-.08-.55-.21-.88-.4l.28-.76c.26.32.53.57.8.73s.63.25,1.05.25c.46,0,.84-.2,1.12-.61.28-.41.42-.99.42-1.74s-.16-1.3-.49-1.7c-.33-.4-.74-.6-1.24-.6-.34,0-.65.09-.93.27s-.57.44-.89.79l-.12-.12c.45-.53.88-.91,1.3-1.15.42-.24.85-.36,1.29-.36.38,0,.72.1,1.04.3.32.2.57.48.76.86.19.38.28.81.28,1.32,0,.69-.15,1.26-.45,1.72-.3.46-.67.8-1.12,1.01s-.89.32-1.34.32c-.34,0-.64-.04-.89-.11Z"/>
      </g>
      <g>
        <path class="cls-1" d="m14.71,15.64c-.18-.12-.32-.28-.43-.5-.11-.22-.16-.47-.16-.75,0-.36.09-.67.26-.92.17-.25.39-.43.65-.55.26-.12.52-.18.79-.18.32,0,.63.1.92.3l-.12.54c-.12-.22-.25-.39-.41-.5-.15-.11-.34-.17-.56-.17-.3,0-.53.1-.71.31-.17.21-.26.52-.26.93s.09.75.26,1,.4.37.67.37c.2,0,.38-.05.54-.16s.33-.26.5-.45l.07.06c-.23.26-.45.47-.67.62-.22.15-.48.23-.77.23-.21,0-.4-.06-.58-.18Zm2.36-.38c.04.08.1.12.19.12.11,0,.24-.03.37-.1h.01s.03,0,.04.03,0,.04,0,.05l-.89.43s-.05.01-.05.01c-.06,0-.12-.06-.16-.19-.04-.12-.07-.29-.07-.5v-3.84c0-.18-.02-.31-.05-.38-.04-.08-.1-.12-.18-.12-.07,0-.18.03-.32.1h-.02s-.03-.01-.04-.03,0-.04,0-.05l.99-.48s.02,0,.04,0c.02,0,.03,0,.05.02.02.01.03.03.03.05v4.5c0,.17.02.3.06.38Z"/>
        <path class="cls-1" d="m18.6,15.61c-.21-.13-.38-.31-.49-.53-.11-.22-.16-.46-.16-.71,0-.29.07-.56.21-.81.14-.24.34-.44.58-.58.24-.14.52-.21.81-.21s.52.07.67.22.23.36.23.63c0,.14-.03.21-.09.21h-.52c.02-.29-.02-.52-.12-.68s-.24-.24-.44-.24c-.24,0-.43.1-.57.31-.14.21-.21.49-.21.85,0,.44.1.79.3,1.05s.49.39.86.39c.14,0,.27-.02.37-.06.1-.04.23-.1.37-.18h0s.03,0,.04.03c.01.02.01.03,0,.05-.18.16-.36.28-.54.35-.18.07-.37.11-.58.11-.29,0-.55-.07-.76-.2Zm-.25-1.89l1.67-.03v.13h-1.67s0-.1,0-.1Z"/>
      </g>
      <g>
        <path class="cls-1" d="m20.05,23.12c-.17-.11-.31-.27-.41-.49-.1-.21-.15-.45-.15-.73,0-.35.08-.64.25-.88s.38-.41.63-.53.5-.17.76-.17c.31,0,.61.1.88.29l-.11.52c-.12-.21-.25-.37-.39-.48-.15-.11-.33-.17-.54-.17-.29,0-.51.1-.68.3-.17.2-.25.5-.25.9s.08.72.25.96c.17.24.38.36.64.36.19,0,.37-.05.52-.15.16-.1.32-.25.49-.43l.06.06c-.22.25-.44.45-.65.6-.21.15-.46.22-.74.22-.2,0-.39-.06-.56-.17Zm2.27-.37c.04.07.1.11.19.11.11,0,.23-.03.35-.09h.01s.03,0,.04.03,0,.04,0,.05l-.86.41s-.05.01-.05.01c-.06,0-.11-.06-.16-.18s-.06-.28-.06-.48v-3.69c0-.17-.02-.3-.05-.37-.03-.07-.09-.11-.17-.11-.07,0-.17.03-.31.09h-.01s-.03-.01-.04-.03c0-.02,0-.04,0-.05l.96-.46s.02,0,.04,0,.03,0,.05.02c.02.01.03.03.03.05v4.33c0,.17.02.29.06.36Z"/>
        <path class="cls-1" d="m23.67,23.03c-.14-.16-.21-.37-.21-.65v-1.09c0-.18-.02-.31-.05-.39-.03-.08-.09-.12-.17-.12-.05,0-.13.02-.22.06h-.01s-.03-.01-.03-.04c0-.02,0-.04.01-.04l.85-.4h.03s.03,0,.05.01c.02.01.03.03.03.05v1.67c0,.28.05.48.15.61.1.13.25.2.45.2.17,0,.34-.05.51-.15s.32-.23.44-.4l.04.08c-.4.54-.83.81-1.28.81-.24,0-.44-.08-.58-.23Zm2.23-.27c.04.07.1.11.18.11.07,0,.19-.03.35-.1h0s.03.01.04.03c0,.02,0,.04,0,.05l-.89.42h-.03s-.09-.05-.14-.17c-.04-.11-.06-.27-.06-.45v-1.37c0-.18-.02-.31-.05-.39-.03-.08-.09-.12-.17-.12-.05,0-.13.02-.23.06h-.01s-.02-.01-.03-.04c0-.02,0-.04.01-.04l.85-.4h.03s.04,0,.06.01c.02.01.03.03.03.05v1.98c0,.16.02.28.05.35Z"/>
      </g>
      <g>
        <path class="cls-1" d="m39.72,33.07c-1.08,0-2.16-.15-3.24-.45-1.08-.3-2.15-.67-3.21-1.11-1.06-.44-2.11-.87-3.13-1.28-.77.4-1.61.75-2.51,1.07-.9.31-1.84.49-2.81.53-1.19,0-2.06-.22-2.62-.65-.56-.43-.84-.94-.84-1.54s.28-1.14.84-1.65c.56-.5,1.33-.76,2.32-.76.86,0,1.76.2,2.7.59.94.4,1.91.85,2.92,1.38.68-.58,1.36-1.23,2.04-1.96.68-.73,1.35-1.51,2.01-2.34-.49-.04-1-.13-1.55-.28-.55-.15-1.07-.36-1.55-.62-.49-.26-.89-.58-1.2-.97-.31-.39-.47-.84-.47-1.36,0-.59.17-1.1.51-1.53.34-.42.79-.77,1.34-1.04s1.14-.47,1.78-.61c.64-.14,1.26-.2,1.85-.2.7,0,1.37.06,2,.18.63.12,1.21.27,1.73.47.65-.79,1.33-1.53,2.05-2.2.72-.68,1.47-1.22,2.25-1.63.78-.41,1.6-.62,2.44-.62.7,0,1.22.19,1.55.55.33.37.5.84.5,1.42,0,.72-.25,1.53-.74,2.43s-1.23,1.78-2.2,2.65c-.97.86-2.17,1.6-3.58,2.21-1.41.61-3.03.99-4.85,1.13-.72.94-1.49,1.82-2.31,2.65-.82.83-1.72,1.55-2.71,2.16.88.45,1.78.9,2.69,1.34s1.84.8,2.81,1.08c.96.28,1.95.42,2.96.42.58,0,1.15-.08,1.73-.23.58-.15,1.06-.42,1.46-.81.4-.39.59-.91.59-1.58,0-.63-.24-1.08-.72-1.35s-1.06-.41-1.74-.41c-.47,0-.98.08-1.53.23-.55.15-1.02.37-1.42.66-.07.05-.13.08-.19.08s-.08-.02-.08-.05c0-.18.2-.37.59-.58.4-.21.87-.39,1.42-.54.55-.15,1.03-.23,1.44-.23s.85.07,1.38.2c.52.14.98.36,1.38.69.4.32.59.77.59,1.35,0,.72-.24,1.31-.73,1.77-.49.46-1.08.8-1.8,1.01-.71.22-1.43.32-2.15.32Zm-14.9-1.67c.81,0,1.58-.14,2.32-.42.74-.28,1.45-.65,2.13-1.12-.94-.38-1.84-.7-2.71-.96-.87-.26-1.71-.39-2.5-.39-.74,0-1.27.11-1.59.32-.32.22-.49.48-.49.78,0,.4.26.79.78,1.19.52.4,1.21.59,2.05.59Zm9.69-6.91c.52-.63,1.1-1.41,1.73-2.35.63-.94,1.32-1.87,2.08-2.81-1.08-.41-2.27-.62-3.56-.62-.4,0-.84.07-1.34.2-.5.14-.96.33-1.4.59-.44.26-.81.58-1.09.96-.29.38-.43.82-.43,1.32,0,.58.22,1.06.65,1.46.43.4.96.69,1.59.89.63.2,1.22.31,1.78.35Zm1.92-.08c1.62-.18,3.06-.58,4.33-1.21,1.27-.63,2.35-1.36,3.25-2.2.9-.84,1.58-1.68,2.05-2.52.47-.85.7-1.57.7-2.19,0-.41-.11-.75-.34-1-.22-.25-.57-.38-1.04-.38s-.92.13-1.4.39c-.49.26-.96.59-1.42.99-.46.4-.87.8-1.24,1.2-.37.4-.65.75-.85,1.04l-.73,1.03c.52.36.96.77,1.32,1.24.07.09.11.22.11.38,0,.11-.02.16-.05.16-.02,0-.05-.03-.08-.08-.42-.52-.93-.97-1.54-1.35-.49.72-.98,1.46-1.49,2.23s-1.04,1.53-1.59,2.28Z"/>
        <path class="cls-1" d="m47.66,30.4c-.57-.36-1.01-.85-1.32-1.46-.31-.61-.47-1.28-.47-2,0-.82.2-1.52.61-2.1.41-.58.92-1.01,1.56-1.29.63-.29,1.28-.43,1.94-.43.75,0,1.41.18,1.98.55.57.37,1.01.85,1.31,1.45.3.6.46,1.24.46,1.91,0,.77-.19,1.46-.56,2.05-.37.6-.87,1.05-1.49,1.38-.62.32-1.3.48-2.03.48s-1.41-.18-1.98-.54Zm3.99-.56c.34-.49.51-1.24.51-2.24,0-.82-.12-1.54-.37-2.17-.25-.62-.59-1.1-1.02-1.43-.43-.34-.91-.5-1.44-.5-.62,0-1.1.24-1.43.71-.34.47-.5,1.17-.5,2.1,0,.8.12,1.52.36,2.18s.57,1.17,1,1.54c.42.37.9.56,1.43.56.63,0,1.12-.25,1.46-.74Z"/>
        <path class="cls-1" d="m55.12,30.58c0-.08.02-.11.06-.11.32,0,.55-.03.71-.1.16-.07.27-.2.32-.38s.09-.46.09-.83v-3.71c0-.42-.05-.72-.14-.9-.1-.18-.26-.28-.49-.28-.21,0-.55.09-1.01.27h-.04s-.07-.03-.08-.1c-.02-.06,0-.1.03-.11l2.34-1.12.11-.02c.13,0,.26.15.39.45.13.3.2.69.2,1.17v4.35c0,.37.05.64.14.83s.27.31.52.38c.25.07.63.1,1.14.1.04,0,.06.04.06.11s-.02.11-.06.11c-.42,0-.75,0-1.01-.02l-1.44-.02-1.06.02c-.18.01-.42.02-.72.02-.04,0-.06-.04-.06-.11Zm3.56-6.94c.39-.3.74-.46,1.05-.46.29,0,.56.09.82.26.25.17.38.38.38.62,0,.19-.06.35-.19.48s-.3.2-.51.2c-.14,0-.25-.03-.34-.09-.09-.06-.2-.14-.34-.26-.13-.11-.23-.2-.31-.25-.08-.05-.19-.08-.33-.08-.18,0-.38.09-.6.28s-.59.58-1.11,1.19l-.11-.21c.68-.82,1.22-1.39,1.61-1.69Z"/>
        <path class="cls-1" d="m63.29,30.49c-.46-.3-.82-.72-1.08-1.28-.27-.56-.4-1.2-.4-1.92,0-.92.22-1.7.67-2.33s1-1.09,1.66-1.4,1.33-.46,2-.46c.82,0,1.6.25,2.34.76l-.3,1.37c-.3-.56-.65-.98-1.04-1.27-.39-.29-.86-.44-1.43-.44-.76,0-1.36.27-1.79.8-.44.53-.66,1.32-.66,2.38s.22,1.91.67,2.54c.44.63,1.01.94,1.69.94.51,0,.97-.14,1.38-.41.41-.27.84-.66,1.28-1.15l.17.15c-.58.66-1.15,1.18-1.71,1.58-.56.39-1.21.59-1.96.59-.53,0-1.03-.15-1.48-.45Zm6-.97c.1.2.27.29.49.29.29,0,.6-.08.93-.25l.04-.02s.07.03.09.1.02.11-.02.13l-2.26,1.08c-.08.03-.12.04-.13.04-.17,0-.3-.16-.42-.48s-.17-.74-.17-1.27v-9.77c0-.46-.04-.78-.13-.98-.09-.2-.24-.29-.46-.29-.18,0-.45.08-.82.25h-.04c-.05,0-.09-.03-.11-.09-.03-.06-.02-.1.02-.12l2.53-1.22s.06-.02.09-.02.08.02.13.06c.05.04.08.08.08.13v11.46c0,.44.05.76.15.96Z"/>
      </g>
    </g>
  </g>
</svg>