<?xml version="1.0" encoding="UTF-8"?>
<svg  data-name="Layer 2" xmlns="http://www.w3.org/2000/svg" viewBox="0 0 11.08 14.81">
  <defs>
    <style>
      .cls-1 {
        fill: #100f25;
        fill-rule: evenodd;
      }

      .cls-1, .cls-2 {
        stroke-width: 0px;
      }

      .cls-2 {
        fill: #131326;
      }
    </style>
  </defs>
  <g  data-name="Layer 1">
    <g>
      <path class="cls-2" d="m10.22,14.81h0c-.44,0-.8-.36-.8-.8l.05-13.21c0-.44.36-.8.8-.8h0c.44,0,.8.36.8.8l-.05,13.21c0,.44-.36.8-.8.8Z"/>
      <path class="cls-1" d="m.85,14.76c.21,0,.41-.1.56-.25l6.55-6.55c.32-.32.32-.84,0-1.16,0,0,0,0,0,0L1.41.26C1.1-.07.59-.08.26.23c-.33.31-.34.83-.03,1.16.01.01.02.02.04.04l5.97,5.97L.26,13.35c-.33.31-.34.83-.02,1.16.16.17.38.26.61.25h0Z"/>
    </g>
  </g>
</svg>