<?xml version="1.0" encoding="UTF-8"?>
<svg id="Layer_2" data-name="Layer 2" xmlns="http://www.w3.org/2000/svg" viewBox="0 0 33.21 26">
  <defs>
    <style>
      .cls-1, .cls-2 {
        stroke-width: 0px;
      }

      .cls-2 {
        fill: #987e65;
      }
    </style>
  </defs>
  <g id="Layer_1-2" data-name="Layer 1">
    <g>
      <path class="cls-2" d="m25.98,12.24c-.1-.04-.22-.06-.34-.06-.61,0-1.1.51-1.1,1.15s.49,1.16,1.1,1.16c.1,0,.2-.01.29-.04.05-.48.08-.96.08-1.45,0-.25-.01-.51-.03-.76Zm-3.36,1.09c0-1.77,1.35-3.19,3.02-3.19h.05c-.27-1.2-.7-2.33-1.28-3.38C22.2,2.73,17.92,0,13.01,0,5.84,0,0,5.83,0,13s5.84,13,13.01,13c4.91,0,9.19-2.73,11.4-6.76.47-.85.85-1.76,1.11-2.72-1.61-.06-2.9-1.46-2.9-3.19ZM13.01,4.64c2.55,0,4.64,2.09,4.64,4.65s-2.09,4.64-4.64,4.64-4.65-2.08-4.65-4.64,2.09-4.65,4.65-4.65Zm0,19.51c-3.33,0-6.31-1.47-8.35-3.78.03-2.53,2.1-4.58,4.64-4.58h7.42c1.31,0,2.49.54,3.33,1.42.53.54.93,1.21,1.13,1.96.12.38.18.78.18,1.2-2.03,2.32-5.01,3.78-8.35,3.78Z"/>
      <g>
        <path class="cls-1" d="m32.28,12.1h-1.5c-.12-.56-.32-1.1-.59-1.59l1.03-1.03c.17-.18.27-.42.27-.67s-.1-.49-.27-.66l-.42-.37c-.17-.17-.41-.27-.66-.27s-.49.1-.66.27l-.94.93c-.51-.36-1.08-.61-1.69-.76v-1.23c0-.51-.42-.93-.94-.93h-.56c-.52,0-.94.42-.94.93v1.23c-.61.15-1.18.42-1.69.76l-.93-.93c-.18-.17-.42-.27-.67-.27s-.49.1-.66.27l-.37.39c-.17.18-.27.42-.27.67s.1.49.27.66l1.03,1.03c-.27.49-.47,1.03-.59,1.6h-1.52c-.52,0-.94.42-.94.93v.57c0,.51.42.93.94.93h1.5c.12.57.32,1.11.59,1.6l-1.03,1.03-.02.02c-.35.37-.34.95.02,1.31l.39.39c.17.17.42.27.66.27.02,0,.04,0,.06-.01.23-.01.45-.1.61-.26l.93-.93c.51.37,1.08.61,1.69.76v1.23c0,.51.42.93.94.93h.56c.52,0,.94-.42.94-.93v-1.23c.61-.15,1.18-.42,1.69-.76l.94.93c.17.17.41.27.66.27s.49-.1.66-.27l.4-.39c.17-.17.27-.42.27-.67s-.1-.49-.27-.66l-1.04-1.03c.27-.49.47-1.03.59-1.6h1.53c.51,0,.93-.42.93-.93v-.57c.03-.54-.39-.96-.93-.96Zm-6.64,4.43s-.08,0-.12-.01c-1.61-.06-2.9-1.46-2.9-3.19s1.35-3.19,3.02-3.19h.05c1.65.03,2.98,1.44,2.98,3.19s-1.36,3.2-3.03,3.2Z"/>
        <path class="cls-2" d="m25.69,10.14h-.05c-1.67,0-3.02,1.42-3.02,3.19s1.29,3.13,2.9,3.19c.04.01.08.01.12.01,1.67,0,3.03-1.43,3.03-3.2s-1.33-3.16-2.98-3.19Zm.24,4.31c-.09.03-.19.04-.29.04-.61,0-1.1-.52-1.1-1.16s.49-1.15,1.1-1.15c.12,0,.24.02.34.06.45.14.77.57.77,1.09s-.34.99-.82,1.12Z"/>
        <path class="cls-1" d="m26.75,13.33c0,.54-.34.99-.82,1.12-.09.03-.19.04-.29.04-.61,0-1.1-.52-1.1-1.16s.49-1.15,1.1-1.15c.12,0,.24.02.34.06.45.14.77.57.77,1.09Z"/>
      </g>
    </g>
  </g>
</svg>