<?xml version="1.0" encoding="UTF-8"?>
<svg  data-name="Layer 2" xmlns="http://www.w3.org/2000/svg" viewBox="0 0 41.06 39.56">
  <defs>
    <style>
      .cls-1 {
        fill: #f3f0ed;
        stroke-width: 0px;
      }
    </style>
  </defs>
  <g  data-name="Layer 1">
    <g>
      <path class="cls-1" d="m0,18.19c0,.72.59,1.3,1.3,1.3h25.36l-9.91,9.84c-.52.52-.52,1.3,0,1.83.26.26.59.39.91.39s.65-.13.91-.39l12.12-12.06c.07-.07.13-.13.13-.2,0,0,0-.07.07-.07,0-.07.07-.13.07-.13v-.13c0-.07.07-.07.07-.13v-.26h0v-.26c0-.07-.07-.13-.07-.2v-.07c0-.07-.07-.13-.07-.2v-.07c-.07-.07-.13-.13-.13-.2l-12.19-12.06c-.52-.52-1.3-.52-1.83,0s-.52,1.3,0,1.83l9.91,9.91H1.3c-.72,0-1.3.59-1.3,1.3Z"/>
      <path class="cls-1" d="m41.06,38.2V1.3c0-.72-.59-1.3-1.3-1.3h-9.91c-.72,0-1.3.59-1.3,1.3s.59,1.3,1.3,1.3h8.6v34.35h-8.6c-.72,0-1.3.59-1.3,1.3s.59,1.3,1.3,1.3h9.91c.72-.07,1.3-.65,1.3-1.37Z"/>
    </g>
  </g>
</svg>