<?xml version="1.0" encoding="UTF-8"?>
<svg id="Layer_2" data-name="Layer 2" xmlns="http://www.w3.org/2000/svg" viewBox="0 0 31.35 34.69">
  <defs>
    <style>
      .cls-1, .cls-2 {
        stroke-width: 0px;
      }

      .cls-2 {
        fill: #b8860b;
      }
    </style>
  </defs>
  <g id="Layer_1-2" data-name="Layer 1">
    <g>
      <path class="cls-2" d="m0,2.8v31.89l12.52-12.52,12.52,12.52V2.8H0Z"/>
      <path class="cls-1" d="m29.94,11.11c-1.31,2.05-5.41,5.27-8.4,7.62-.91.72-1.7,1.33-2.3,1.84-.11.09-.26.09-.37,0-.6-.5-1.39-1.12-2.3-1.84-2.99-2.35-7.08-5.57-8.4-7.62-.91-1.37-1.4-2.98-1.41-4.62,0-1.43.47-2.83,1.33-3.97.85-1.1,2.03-1.88,3.37-2.25,1.29-.37,2.66-.35,3.94.05,1.07.32,2.01.96,2.72,1.82.41.52.73,1.11.93,1.74.2-.63.51-1.22.93-1.74.71-.86,1.65-1.49,2.72-1.82,1.28-.39,2.65-.41,3.94-.05,1.34.36,2.52,1.15,3.37,2.25.87,1.14,1.33,2.54,1.33,3.97,0,1.65-.5,3.25-1.41,4.62Z"/>
    </g>
  </g>
</svg>