<?xml version="1.0" encoding="UTF-8"?>
<svg id="Layer_2" data-name="Layer 2" xmlns="http://www.w3.org/2000/svg" viewBox="0 0 625.58 568.87">
  <defs>
    <style>
      .cls-1 {
        stroke: #000;
        stroke-linecap: round;
        stroke-miterlimit: 10;
        stroke-width: 4px;
      }
    </style>
  </defs>
  <g id="Layer_1-2" data-name="Layer 1">
    <g>
      <path class="cls-1" d="m23.6,258.9c9.96-7.82,19.86-15.7,29.83-23.52,23.71-18.73,47.42-37.39,71.06-56.12,28.75-22.7,57.44-45.34,86.2-68.04,24.84-19.61,49.69-39.22,74.47-58.77,12.04-9.52,24.4-18.66,36.13-28.5.19-.13.38-.25.5-.44h-17.84c9.96,7.82,19.86,15.7,29.83,23.52,23.71,18.73,47.42,37.39,71.06,56.12,28.75,22.7,57.44,45.34,86.2,68.04,24.84,19.61,49.69,39.22,74.47,58.77,12.04,9.52,24.09,19.04,36.13,28.5.19.13.38.25.5.44,2.71,2.14,5.3,3.72,8.89,3.72,3.09,0,6.81-1.39,8.89-3.72,4.16-4.54,5.55-13.49,0-17.84-9.96-7.82-19.86-15.7-29.83-23.52-23.71-18.73-47.42-37.39-71.06-56.12-28.75-22.7-57.44-45.34-86.2-68.04-24.84-19.61-49.69-39.22-74.47-58.77-12.04-9.52-24.09-19.04-36.13-28.5-.19-.13-.38-.25-.5-.44-5.86-4.6-11.92-4.67-17.84,0-9.96,7.82-19.86,15.7-29.83,23.52-23.71,18.73-47.42,37.39-71.06,56.12-28.75,22.7-57.44,45.34-86.2,68.04-24.84,19.61-49.69,39.22-74.47,58.77-11.98,9.46-24.53,18.54-36.13,28.5-.19.13-.38.25-.5.44-5.23,4.1-4.6,13.62,0,17.84,5.61,5.04,12.36,4.35,17.91,0h0Z"/>
      <path class="cls-1" d="m388,541.7h-150.07c4.22,4.22,8.39,8.39,12.61,12.61v-223.91c0-2.52.06.82-.13.82-.06,0,.38-1.45.38-1.64.44-2.46-.13.88-.44.69-.06,0,.63-1.26.76-1.45.19-.38.44-.69.63-1.01.5-.76.25-.44-.76.95-.06-.06,2.21-2.33,2.27-2.27.19.19-2.71,1.64-.57.57.44-.25.95-.5,1.39-.82,2.08-1.2-.69.44-.76.32,0-.06,1.39-.38,1.58-.44,2.02-.69-.38.19-.88.06.32.13,1.32-.06,1.7-.06h114.26c-.13,0,1.7,0,1.7.06.06.63-2.84-.69-.88-.06-.13-.06,1.58.44,1.58.44-.06.32-2.46-1.32-.76-.32.5.32,1.2.88,1.77,1.01,1.39.44-1.58-1.64-.63-.5.32.38.76.76,1.2,1.13,2.02,1.89-.32-.32-.19-.38.06-.06,1.7,2.77,1.58,2.84-.63.38-.76-2.71-.44-.69,0-.13.44,1.64.38,1.64-.44.06-.13-2.84-.13-.82,0-.32,0,.57,0,.88v222.9c0,6.62,5.8,12.93,12.61,12.61s12.61-5.55,12.61-12.61v-222.52c-.06-8.32-3.28-16.84-9.52-22.51-6.18-5.68-13.81-8.39-22.13-8.39h-45.34c-22.26,0-44.52-.06-66.78,0-17.4.06-31.4,13.37-31.53,30.96-.06,4.73,0,9.46,0,14.19v208.27c0,6.81,5.8,12.61,12.61,12.61h150.07c6.62,0,12.93-5.8,12.61-12.61-.06-6.75-5.3-12.55-12.36-12.55Z"/>
      <path class="cls-1" d="m536.68,201.2v302.54c0,8.51.13,17.09,0,25.66v.06c0,.95,0,.63-.06,1.32-.06,1.01-.76,1.7,0,.44.82-1.32.06-.44-.13.44-.06.38-.19.82-.32,1.2-.13.57-.32,1.07-.5,1.58-.76,2.59,1.32-2.27-.06,0-.57.95-1.07,1.89-1.7,2.77-1.13,1.77,1.83-1.77-.32.32l-1.13,1.13c-.13.06-.19.19-.32.25q-.82.69,0,.06c.19-.19.44-.32.63-.5-.32.25-.63.5-1.01.69-.57.38-1.13.76-1.77,1.07-.19.13-1.45.76-1.45.76-.06-.13,3.09-1.01.69-.32-1.07.32-2.14.63-3.22.88-2.21.57,2.52-.13-.44.06-.44,0-.88,0-1.32.06H125.5c-7.95,0-15.95.06-23.9,0h-.38c-.32,0-2.59.06-2.59-.13-.06-.19,3.28.76.82.06-.57-.13-1.07-.25-1.64-.38-.5-.13-1.07-.38-1.58-.5-1.89-.57.88.06.69.32-.06.13-2.52-1.39-2.84-1.58.06.06-1.39-.88-1.32-.95.06-.32,2.02,1.89.69.44-.19-.25-2.4-2.21-2.27-2.33.19-.19,1.51,2.27.5.63-.32-.44-.63-.88-.88-1.39-.25-.44-.5-.95-.82-1.45-1.2-1.89.5,1.77.13.38-.25-1.07-.69-2.08-.95-3.22-.63-2.84-.06,1.83-.13-.44,0-.63-.06-1.2-.06-1.83-.06-2.59,0-5.11,0-7.69V201.14c-1.26,2.96-2.46,5.93-3.72,8.89,17.21-13.56,34.43-27.18,51.71-40.73,8.39-6.62,16.77-13.24,25.22-19.86,18.54-14.63,37.01-29.19,55.55-43.82,22.13-17.47,44.33-34.93,66.46-52.46,12.36-9.77,25.1-19.17,37.14-29.32.19-.13.38-.25.57-.44h-17.84c10.22,8.07,20.43,16.08,30.58,24.15,21.75,17.15,43.45,34.3,65.2,51.45,19.67,15.51,39.35,31.02,58.96,46.54,7.82,6.18,15.64,12.36,23.46,18.54,18.92,14.94,37.83,29.89,56.75,44.83.44.38.88.69,1.32,1.07,2.71,2.14,5.3,3.72,8.89,3.72,3.09,0,6.81-1.39,8.89-3.72,4.16-4.54,5.55-13.49,0-17.84-17.21-13.56-34.43-27.18-51.58-40.73-8.39-6.62-16.77-13.24-25.16-19.86-18.48-14.63-37.01-29.19-55.49-43.82-22.13-17.47-44.27-34.93-66.46-52.46-12.36-9.77-24.72-19.55-37.14-29.32-.19-.13-.38-.25-.57-.44-5.86-4.6-11.92-4.67-17.84,0-13.75,10.85-27.56,21.69-41.3,32.6-26.36,20.81-52.71,41.62-79.13,62.43-16.58,13.12-33.17,26.17-49.75,39.28-18.1,14.25-36.19,28.56-54.29,42.81-3.72,2.96-7.57,5.8-11.22,8.89-3.15,2.65-4.41,6.56-4.48,10.53-.06,5.36,0,10.72,0,16.08v268.81c0,14.06-.19,28.06,0,42.12.25,20.93,17.09,37.58,38.02,37.71h415.85c5.42,0,10.66.13,16.02-1.13,15.51-3.78,26.17-17.4,28-32.92.25-1.89.25-3.78.25-5.68V201.07c0-6.62-5.8-12.93-12.61-12.61-6.75.44-12.55,5.68-12.55,12.74Z"/>
    </g>
  </g>
</svg>