<?xml version="1.0" encoding="UTF-8"?>
<svg id="Layer_2" data-name="Layer 2" xmlns="http://www.w3.org/2000/svg" viewBox="0 0 90.96 90.96">
  <defs>
    <style>
      .cls-1, .cls-2, .cls-3 {
        stroke-width: 0px;
      }

      .cls-2 {
        fill: #c2b2a3;
      }

      .cls-3 {
        fill: #b8860b;
      }
    </style>
  </defs>
  <g id="Layer_1-2" data-name="Layer 1">
    <g>
      <path class="cls-1" d="m6.5,60.1V8.12c0-.9.73-1.62,1.62-1.62h38.98c.9,0,1.62.73,1.62,1.62v11.37h3.53c.49-1.39,1.58-2.48,2.97-2.97v-3.81c-2.54-.9-3.87-3.68-2.97-6.22.49-1.39,1.58-2.48,2.97-2.97V0h-3.53c-.9,2.54-3.68,3.87-6.22,2.97-1.39-.49-2.48-1.58-2.97-2.97h-3.81c-.9,2.54-3.68,3.87-6.22,2.97-1.39-.49-2.48-1.58-2.97-2.97h-3.81c-.9,2.54-3.68,3.87-6.22,2.97-1.39-.49-2.48-1.58-2.97-2.97h-3.81c-.9,2.54-3.68,3.87-6.22,2.97-1.39-.49-2.48-1.58-2.97-2.97H0v3.53c2.54.9,3.87,3.68,2.97,6.22-.49,1.39-1.58,2.48-2.97,2.97v3.81c2.54.9,3.87,3.68,2.97,6.22-.49,1.39-1.58,2.48-2.97,2.97v3.81c2.54.9,3.87,3.68,2.97,6.22-.49,1.39-1.58,2.48-2.97,2.97v3.81c2.54.9,3.87,3.68,2.97,6.22-.49,1.39-1.58,2.48-2.97,2.97v3.81c2.54.9,3.87,3.68,2.97,6.22-.49,1.39-1.58,2.48-2.97,2.97v3.53h3.53c.9-2.54,3.68-3.87,6.22-2.97,1.39.49,2.48,1.58,2.97,2.97h3.81c.9-2.54,3.68-3.87,6.22-2.97,1.39.49,2.48,1.58,2.97,2.97h3.8c.49-1.39,1.58-2.48,2.97-2.97v-3.53H8.12c-.9,0-1.62-.73-1.62-1.62Z"/>
      <path class="cls-1" d="m34.11,55.23c-.9,0-1.62-.73-1.62-1.62v-6.5c0-.9.73-1.62,1.62-1.62.9,0,1.62-.73,1.62-1.63,0-.83-.63-1.52-1.45-1.61-1.93,1.24-3.97,2.29-6.1,3.14-.37.14-.77.14-1.14,0-.57-.22-14.05-5.37-14.05-14.52,0-4.48,3.63-8.12,8.12-8.12,2.56,0,4.97,1.21,6.5,3.25,1.19-1.59,2.93-2.69,4.87-3.09v-1.79c0-.9.73-1.62,1.62-1.62h6.5c.9,0,1.62.73,1.62,1.62s.73,1.62,1.62,1.62,1.62-.73,1.62-1.62v-11.37H9.75v48.73h24.36c.9,0,1.62-.73,1.62-1.62s-.73-1.62-1.62-1.62Z"/>
      <polygon class="cls-1" points="50.35 65.65 45.48 70.52 45.48 81.22 46.47 81.22 56.53 71.82 50.35 65.65"/>
      <path class="cls-3" d="m29.24,30.86c0,.9-.73,1.62-1.62,1.62s-1.62-.73-1.62-1.62c0-2.69-2.18-4.87-4.87-4.87s-4.87,2.18-4.87,4.87c0,5.42,7.72,9.74,11.36,11.24,1.69-.72,3.33-1.58,4.88-2.57v-5.42c0-.9.73-1.62,1.62-1.62s1.62-.73,1.62-1.62-.73-1.62-1.62-1.62-1.62-.73-1.62-1.62v-1.34c-1.95.69-3.25,2.53-3.25,4.59Z"/>
      <polygon class="cls-1" points="51.23 81.22 81.22 81.22 81.22 70.59 71.52 62.28 51.23 81.22"/>
      <path class="cls-1" d="m82.84,25.99c-2.06,0-3.9-1.3-4.59-3.25h-3.81c-.9,2.54-3.68,3.87-6.22,2.97-1.39-.49-2.48-1.58-2.97-2.97h-3.81c-.9,2.54-3.68,3.87-6.22,2.97-1.39-.49-2.48-1.58-2.97-2.97h-3.81c-.9,2.54-3.68,3.87-6.22,2.97-1.39-.49-2.48-1.58-2.97-2.97h-3.53v3.53c2.54.9,3.87,3.68,2.97,6.22-.49,1.39-1.58,2.48-2.97,2.97v3.81c2.54.9,3.87,3.68,2.97,6.22-.49,1.39-1.58,2.48-2.97,2.97v3.81c2.54.9,3.87,3.68,2.97,6.22-.49,1.39-1.58,2.48-2.97,2.97v3.81c2.54.9,3.87,3.68,2.97,6.22-.49,1.39-1.58,2.48-2.97,2.97v3.81c2.54.9,3.87,3.68,2.97,6.22-.49,1.39-1.58,2.48-2.97,2.97v3.53h3.53c.9-2.54,3.68-3.87,6.22-2.97,1.39.49,2.48,1.58,2.97,2.97h3.81c.9-2.54,3.68-3.87,6.22-2.97,1.39.49,2.48,1.58,2.97,2.97h3.81c.9-2.54,3.68-3.87,6.22-2.97,1.39.49,2.48,1.58,2.97,2.97h3.81c.9-2.54,3.68-3.87,6.22-2.97,1.39.49,2.48,1.58,2.97,2.97h3.53v-3.53c-2.54-.9-3.87-3.68-2.97-6.22.49-1.39,1.58-2.48,2.97-2.97v-3.81c-2.54-.9-3.87-3.68-2.97-6.22.49-1.39,1.58-2.48,2.97-2.97v-3.81c-2.54-.9-3.87-3.68-2.97-6.22.49-1.39,1.58-2.48,2.97-2.97v-3.81c-2.54-.9-3.87-3.68-2.97-6.22.49-1.39,1.58-2.48,2.97-2.97v-3.81c-2.54-.9-3.87-3.68-2.97-6.22.49-1.39,1.58-2.48,2.97-2.97v-3.53h-3.53c-.69,1.95-2.53,3.25-4.59,3.25Zm1.62,56.85c0,.9-.73,1.62-1.62,1.62h-38.98c-.9,0-1.62-.73-1.62-1.62V30.86c0-.9.73-1.62,1.62-1.62h38.98c.9,0,1.62.73,1.62,1.62v51.98Z"/>
      <path class="cls-2" d="m45.48,65.92l3.72-3.72c.63-.63,1.66-.63,2.3,0h0s7.4,7.4,7.4,7.4l11.46-10.69c.6-.56,1.54-.58,2.17-.05l8.69,7.45v-33.83h-35.74v33.44Zm22.74-26.94c3.59,0,6.5,2.91,6.5,6.5s-2.91,6.5-6.5,6.5-6.5-2.91-6.5-6.5c0-3.59,2.91-6.49,6.5-6.5Z"/>
      <circle class="cls-1" cx="68.22" cy="45.48" r="3.25"/>
    </g>
  </g>
</svg>