<?xml version="1.0" encoding="UTF-8"?>
<svg id="Layer_2" data-name="Layer 2" xmlns="http://www.w3.org/2000/svg" viewBox="0 0 55.23 68.22">
  <defs>
    <style>
      .cls-1, .cls-2, .cls-3 {
        stroke-width: 0px;
      }

      .cls-2 {
        fill: #c2b2a3;
      }

      .cls-3 {
        fill: #987e65;
        fill-rule: evenodd;
      }
    </style>
  </defs>
  <g id="Layer_1-2" data-name="Layer 1">
    <g>
      <path class="cls-3" d="m52.26,6.5c-.9,2.54.43,5.32,2.97,6.22v3.8c-1.39.49-2.48,1.59-2.97,2.98-.9,2.53.43,5.32,2.97,6.21v3.81c-1.39.49-2.48,1.58-2.97,2.97-.9,2.54.43,5.32,2.97,6.22v3.8c-1.39.49-2.48,1.59-2.97,2.97-.9,2.54.43,5.33,2.97,6.22v3.81c-1.39.49-2.48,1.58-2.97,2.97-.9,2.54.43,5.32,2.97,6.22v3.52h-3.53c-.49-1.38-1.58-2.48-2.97-2.97-2.54-.89-5.32.44-6.22,2.97h-3.8c-.49-1.38-1.58-2.48-2.97-2.97-2.54-.89-5.32.44-6.22,2.97h-3.81c-.49-1.38-1.58-2.48-2.97-2.97-2.54-.89-5.32.44-6.22,2.97h-3.8c-.49-1.38-1.58-2.48-2.97-2.97-2.54-.89-5.32.44-6.22,2.97H0v-3.52c1.39-.49,2.48-1.59,2.97-2.97.9-2.54-.43-5.33-2.97-6.22v-3.81c1.39-.49,2.48-1.58,2.97-2.97.9-2.54-.43-5.32-2.97-6.22v-3.8c1.39-.49,2.48-1.58,2.97-2.97.9-2.54-.43-5.32-2.97-6.22v-3.81c1.39-.49,2.48-1.58,2.97-2.97.9-2.54-.43-5.32-2.97-6.22v-3.8c1.39-.49,2.48-1.58,2.97-2.97.9-2.54-.43-5.32-2.97-6.22V0h3.53c.49,1.39,1.58,2.48,2.97,2.97,2.54.9,5.32-.43,6.22-2.97h3.8c.49,1.39,1.59,2.48,2.98,2.97,2.53.9,5.32-.43,6.21-2.97h3.81c.49,1.39,1.58,2.48,2.97,2.97,2.54.9,5.32-.43,6.22-2.97h3.8c.69,1.95,2.53,3.25,4.6,3.25s3.9-1.3,4.59-3.25h3.53v3.53c-1.39.49-2.48,1.58-2.97,2.97Z"/>
      <path class="cls-1" d="m55.23,3.53V0h-3.53c-.69,1.95-2.53,3.25-4.59,3.25s-3.91-1.3-4.6-3.25h-3.8c-.9,2.54-3.68,3.87-6.22,2.97-1.39-.49-2.48-1.58-2.97-2.97h-3.81c-.89,2.54-3.68,3.87-6.21,2.97-1.39-.49-2.49-1.58-2.98-2.97h-3.8c-.9,2.54-3.68,3.87-6.22,2.97-1.39-.49-2.48-1.58-2.97-2.97H0v3.53c2.54.9,3.87,3.68,2.97,6.22-.49,1.39-1.58,2.48-2.97,2.97v3.8c2.54.9,3.87,3.68,2.97,6.22-.49,1.39-1.58,2.48-2.97,2.97v3.81c2.54.9,3.87,3.68,2.97,6.22-.49,1.39-1.58,2.48-2.97,2.97v3.8c2.54.9,3.87,3.68,2.97,6.22-.49,1.39-1.58,2.48-2.97,2.97v3.81c2.54.89,3.87,3.68,2.97,6.22-.49,1.38-1.58,2.48-2.97,2.97v3.52h3.53c.9-2.53,3.68-3.86,6.22-2.97,1.39.49,2.48,1.59,2.97,2.97h3.8c.9-2.53,3.68-3.86,6.22-2.97,1.39.49,2.48,1.59,2.97,2.97h3.81c.9-2.53,3.68-3.86,6.22-2.97,1.39.49,2.48,1.59,2.97,2.97h3.8c.9-2.53,3.68-3.86,6.22-2.97,1.39.49,2.48,1.59,2.97,2.97h3.53v-3.52c-2.54-.9-3.87-3.68-2.97-6.22.49-1.39,1.58-2.48,2.97-2.97v-3.81c-2.54-.89-3.87-3.68-2.97-6.22.49-1.38,1.58-2.48,2.97-2.97v-3.8c-2.54-.9-3.87-3.68-2.97-6.22.49-1.39,1.58-2.48,2.97-2.97v-3.81c-2.54-.89-3.87-3.68-2.97-6.21.49-1.39,1.58-2.49,2.97-2.98v-3.8c-2.54-.9-3.87-3.68-2.97-6.22.49-1.39,1.58-2.48,2.97-2.97Zm-6.5,56.57c0,.9-.72,1.63-1.62,1.63H8.12c-.89,0-1.62-.73-1.62-1.63V8.12c0-.89.73-1.62,1.62-1.62h38.99c.9,0,1.62.73,1.62,1.62v51.98Z"/>
      <path class="cls-2" d="m27.59,21.95c-.75.01-1.34.63-1.33,1.37,0,0,0,0,0,0v9.44h-9.44c-.75,0-1.35.6-1.35,1.35s.6,1.35,1.35,1.35h9.44v9.44c0,.75.6,1.35,1.35,1.35s1.35-.6,1.35-1.35v-9.44h9.44c.75,0,1.35-.6,1.35-1.35s-.6-1.35-1.35-1.35h-9.44v-9.44c.01-.75-.58-1.36-1.32-1.38-.02,0-.04,0-.05,0Z"/>
    </g>
  </g>
</svg>