<?xml version="1.0" encoding="UTF-8"?>
<svg  data-name="Layer 2" xmlns="http://www.w3.org/2000/svg" viewBox="0 0 44.5 29.67">
  <defs>
    <style>
      .cls-1 {
        fill: #000000;
        stroke-width: 0px;
      }
    </style>
  </defs>
  <g  data-name="Layer 1">
    <path class="cls-1" d="m0,14.09c0-.41.33-.74.74-.74h.74c.41,0,.74.33.74.74s-.33.74-.74.74h-.74C.33,14.83,0,14.5,0,14.09H0ZM2.23,5.93h.74c.41,0,.74-.33.74-.74s-.33-.74-.74-.74h-.74c-.41,0-.74.33-.74.74s.33.74.74.74Zm28.15-3.59l-3.61,22.87h-7.06c.03-.13.05-.26.07-.39.32-1.77-.17-3.59-1.33-4.96-1.16-1.34-2.85-2.09-4.61-2.06-3.65.08-6.73,2.73-7.35,6.33-.06.36-.09.73-.09,1.09h-.68c-1.09.02-1.99-.84-2.02-1.93,0-.14,0-.28.04-.42l.33-2.11h1.86c.41,0,.74-.33.74-.74s-.33-.74-.74-.74H.74C.33,19.28,0,18.95,0,18.54s.33-.74.74-.74h3.8l.24-1.48h9.32c.41,0,.74-.33.74-.74s-.33-.74-.74-.74H4.45c-.41,0-.74-.33-.74-.74s.33-.74.74-.74h.79l.23-1.48h4.17c.41,0,.74-.33.74-.74s-.33-.74-.74-.74H2.97c-.41,0-.74-.33-.74-.74s.33-.74.74-.74h2.98l.23-1.48h9.4c.41,0,.74-.33.74-.74s-.33-.74-.74-.74H5.93c-.41,0-.74-.33-.74-.74s.33-.74.74-.74h.71l.37-2.34C7.22.91,8.25.03,9.46,0h18.94c.59,0,1.15.25,1.54.69.38.46.54,1.07.44,1.65Zm-13.32,8.78c0-.41-.33-.74-.74-.74h-3.71c-.41,0-.74.33-.74.74s.33.74.74.74h3.71c.41,0,.74-.33.74-.74Zm-3.69,12.61c-.49.03-.89.38-.99.86-.03.16,0,.33.11.46.1.11.26.18.41.17.48-.03.89-.38.98-.86h0c.03-.16,0-.33-.11-.46-.1-.11-.26-.18-.41-.17Zm3.96-2.91c.87,1.05,1.24,2.42.99,3.76-.52,2.87-2.97,4.98-5.89,5.08-1.33.03-2.61-.54-3.49-1.54-.87-1.05-1.24-2.42-.99-3.76.52-2.87,2.97-4.98,5.89-5.08,1.33-.03,2.61.54,3.49,1.54h0Zm-2.42,2.11c-.39-.44-.95-.7-1.54-.69-1.22.03-2.24.91-2.45,2.11-.1.59.06,1.19.44,1.65.39.44.95.69,1.54.69,1.22-.03,2.24-.91,2.45-2.11.1-.59-.06-1.19-.44-1.65h0Zm20.36.8c-.49.03-.89.38-.99.86-.03.16,0,.33.11.46.11.11.26.18.41.17.49-.03.89-.38.99-.86.03-.16,0-.33-.11-.46-.11-.11-.26-.18-.41-.17Zm3.96-2.91c.87,1.05,1.24,2.42.99,3.76-.52,2.87-2.97,4.98-5.88,5.08-1.33.03-2.61-.54-3.49-1.54-.87-1.05-1.24-2.42-.99-3.76.52-2.87,2.97-4.98,5.88-5.08,1.33-.03,2.61.54,3.49,1.54h0Zm-2.42,2.11c-.39-.44-.95-.7-1.54-.69-1.22.03-2.24.91-2.45,2.11-.1.59.06,1.19.44,1.65.39.44.95.7,1.54.69,1.22-.03,2.24-.91,2.45-2.11.1-.59-.06-1.19-.44-1.65h0Zm-1.5-10.33h6.59l-.73-6.41c-.11-1.01-.98-1.77-2-1.75h-3.19l-1.19,7.53c-.03.16,0,.33.11.46.1.11.26.18.41.17Zm8.51,1.96l-.56-.47h-7.95c-.59,0-1.15-.24-1.54-.69-.38-.46-.54-1.06-.44-1.65l1.15-7.3h-2.93l-2.98,18.87c.92-3.21,3.83-5.45,7.17-5.52,1.77-.03,3.46.72,4.61,2.06,1.16,1.37,1.65,3.19,1.33,4.96-.01.1-.04.21-.05.3.93-.28,1.62-1.06,1.79-2.02l1.05-6.68c.12-.69-.12-1.4-.65-1.86Z"/>
  </g>
</svg>