<?xml version="1.0" encoding="UTF-8"?>
<svg  data-name="Layer 2" xmlns="http://www.w3.org/2000/svg" viewBox="0 0 28 28">
  <defs>
    <style>
      .cls-1 {
        fill: #000000;
        stroke-width: 0px;
      }
    </style>
  </defs>
  <g  data-name="Layer 1">
    <path class="cls-1" d="m26.71,22.29c.28.29.37.72.21,1.09-.15.37-.52.62-.92.62h-3c-.55,0-1-.45-1-1v-3c0-.4.25-.77.62-.92.37-.16.8-.07,1.09.21l.68.69c3.3-5.75,1.31-13.08-4.43-16.38-3.23-1.85-7.13-2.1-10.57-.68-.53.16-1.09-.14-1.25-.67-.14-.46.07-.95.49-1.17C10.33.37,12.16,0,14,0,21.73,0,28,6.27,28,14c0,2.63-.74,5.21-2.15,7.44l.86.85Zm-8.09,2.79c-6.12,2.55-13.14-.34-15.7-6.45-1.44-3.46-1.19-7.38.69-10.63l.68.69c.19.19.44.31.71.31.13,0,.26-.02.38-.08.37-.15.62-.52.62-.92v-3c0-.55-.45-1-1-1h-3c-.4,0-.77.25-.92.62-.16.37-.07.8.21,1.09l.86.85C.74,8.79,0,11.37,0,14,0,21.73,6.27,28,14,28c1.85,0,3.68-.36,5.38-1.08.53-.16.83-.72.67-1.25-.16-.53-.72-.83-1.25-.67-.06.02-.12.04-.18.07ZM5.94,10h4.55c.43-1.75,1.17-3.41,2.17-4.9-2.91.44-5.41,2.27-6.72,4.9Zm6.64,0h2.86c-.33-1.15-.82-2.25-1.44-3.27-.62,1.02-1.1,2.12-1.42,3.27Zm2.76-4.9c1,1.49,1.74,3.15,2.17,4.9h4.55c-1.31-2.63-3.81-4.46-6.72-4.9Zm-2.68,17.8c-1-1.49-1.74-3.15-2.17-4.9h-4.55c1.31,2.63,3.81,4.46,6.72,4.9Zm2.76-4.9h-2.86c.33,1.15.82,2.25,1.44,3.27.62-1.02,1.1-2.12,1.42-3.27Zm2.09,0c-.43,1.75-1.17,3.41-2.17,4.9,2.91-.44,5.41-2.27,6.72-4.9h-4.55Zm-12.29-6c-.29,1.32-.29,2.68,0,4h4.9c-.16-1.33-.16-2.67,0-4h-4.9Zm10.78,2c0-.67-.05-1.34-.14-2h-3.71c-.1.66-.15,1.33-.15,2,0,.67.05,1.34.14,2h3.71c.1-.66.15-1.33.15-2Zm6.78,2c.29-1.32.29-2.68,0-4h-4.9c.16,1.33.16,2.67,0,4h4.9Z"/>
  </g>
</svg>