<?xml version="1.0" encoding="UTF-8"?>
<svg  data-name="Layer 2" xmlns="http://www.w3.org/2000/svg" viewBox="0 0 47.31 41">
  <defs>
    <style>
      .cls-1 {
        fill: #000000;
        stroke-width: 0px;
      }
    </style>
  </defs>
  <g  data-name="Layer 1">
    <path class="cls-1" d="m46.52,18.92c-1.88-.01-3.74-.33-5.52-.94V3.94c0-2.18-1.77-3.94-3.94-3.94H3.94C1.77,0,0,1.77,0,3.94v20.5c0,2.18,1.77,3.94,3.94,3.94h21.31c.56,9.15,10.67,12.54,10.77,12.58.16.05.33.05.49,0,.11-.03,10.79-3.61,10.79-13.36v-7.88c0-.43-.35-.79-.79-.79ZM1.58,3.94c0-1.3,1.06-2.36,2.37-2.37h33.12c1.3,0,2.36,1.06,2.37,2.37v.79H1.58v-.79Zm24.44,14.98c-.43,0-.79.35-.79.79v7.1H3.94c-1.3,0-2.36-1.06-2.37-2.37v-11.83h37.85v4.76c-.94-.4-1.84-.89-2.69-1.46-.28-.2-.65-.2-.93,0-2.91,1.91-6.3,2.95-9.78,3Zm16.33,6.87l-7.1,7.1c-.31.3-.81.3-1.12,0l-3.94-3.94c-.31-.31-.31-.81,0-1.12.31-.31.81-.31,1.11,0l3.38,3.39,6.54-6.54c.31-.31.81-.31,1.12,0,.31.31.31.81,0,1.11Zm-28.16-9.23v6.31c0,.43-.35.79-.79.79h-7.88c-.43,0-.79-.35-.79-.79v-6.31c0-.43.35-.79.79-.79h7.88c.43,0,.79.35.79.79Z"/>
  </g>
</svg>