<?xml version="1.0" encoding="UTF-8"?>
<svg  data-name="Layer 2" xmlns="http://www.w3.org/2000/svg" viewBox="0 0 8.64 8.28">
  <defs>
    <style>
      .cls-1 {
        fill: #f3f0ee;
        stroke-width: 0px;
      }
    </style>
  </defs>
  <g  data-name="Layer 1">
    <g>
      <path class="cls-1" d="m7.72,2.11h-.98V.32c0-.17-.14-.32-.32-.32s-.32.14-.32.32v1.79h-3.48V.32c0-.17-.14-.32-.32-.32s-.32.14-.32.32v1.79H.92C.41,2.11,0,2.52,0,3.03c0,.4.25.75.63.87v3.21c0,.64.52,1.16,1.16,1.16h5.06c.64,0,1.16-.52,1.16-1.16v-3.21c.48-.16.74-.68.58-1.17-.13-.38-.48-.63-.87-.63Zm-.87,5.54H1.79c-.29,0-.53-.24-.53-.53v-3.16h6.12v3.16c0,.29-.24.53-.53.53Zm.87-4.32H.92c-.16,0-.29-.13-.29-.29s.13-.29.29-.29h6.8c.16,0,.29.13.29.29s-.13.29-.29.29Z"/>
      <path class="cls-1" d="m4.32,4.53c-.17,0-.32.14-.32.32h0v1.9c0,.17.14.32.32.32s.32-.14.32-.32v-1.9c0-.17-.14-.32-.32-.32h0Z"/>
      <path class="cls-1" d="m5.8,4.53c-.17,0-.32.14-.32.32h0v1.9c0,.17.14.32.32.32s.32-.14.32-.32v-1.9c0-.17-.14-.32-.32-.32h0Z"/>
      <path class="cls-1" d="m2.84,4.53c-.17,0-.32.14-.32.32h0v1.9c0,.17.14.32.32.32s.32-.14.32-.32v-1.9c0-.17-.14-.32-.32-.32h0Z"/>
    </g>
  </g>
</svg>