<?xml version="1.0" encoding="UTF-8"?>
<svg  data-name="Layer 2" xmlns="http://www.w3.org/2000/svg" viewBox="0 0 11.08 14.81">
  <defs>
    <style>
      .cls-1 {
        fill: #100f25;
        fill-rule: evenodd;
      }

      .cls-1, .cls-2 {
        stroke-width: 0px;
      }

      .cls-2 {
        fill: #131326;
      }
    </style>
  </defs>
  <g  data-name="Layer 1">
    <g>
      <path class="cls-2" d="m.85,0h0c.44,0,.8.36.8.8l-.05,13.21c0,.44-.36.8-.8.8h0C.35,14.81,0,14.45,0,14.01L.05.8c0-.44.36-.8.8-.8Z"/>
      <path class="cls-1" d="m10.22.05c-.21,0-.41.1-.56.25L3.12,6.84c-.32.32-.32.84,0,1.16,0,0,0,0,0,0l6.55,6.55c.31.33.83.34,1.16.03.33-.31.34-.83.03-1.16-.01-.01-.02-.02-.04-.04l-5.97-5.97L10.82,1.46c.33-.31.34-.83.02-1.16-.16-.17-.38-.26-.61-.25h0Z"/>
    </g>
  </g>
</svg>