<?xml version="1.0" encoding="UTF-8"?>
<svg  data-name="Layer 2" xmlns="http://www.w3.org/2000/svg" viewBox="0 0 73.84 73.84">
  <defs>
    <style>
      .cls-1 {
        fill: #f3f0ed;
        stroke-width: 0px;
      }
    </style>
  </defs>
  <g  data-name="Layer 1">
    <path class="cls-1" d="m36.92,0C16.56,0,0,16.56,0,36.92s16.56,36.92,36.92,36.92,36.92-16.56,36.92-36.92S57.28,0,36.92,0Zm0,13.19c7.25,0,13.19,5.93,13.19,13.19s-5.93,13.19-13.19,13.19-13.19-5.93-13.19-13.19,5.93-13.19,13.19-13.19Zm-10.55,31.65h21.1c7.2,0,13.08,5.83,13.18,13.01-5.79,6.57-14.25,10.72-23.72,10.72s-17.93-4.16-23.72-10.72c.1-7.18,5.98-13.01,13.18-13.01Z"/>
  </g>
</svg>