<?xml version="1.0" encoding="UTF-8"?>
<svg id="Layer_2" data-name="Layer 2" xmlns="http://www.w3.org/2000/svg" viewBox="0 0 47.99 48">
  <defs>
    <style>
      .cls-1 {
        fill: #fdfaf3;
        stroke-width: 0px;
      }
    </style>
  </defs>
  <g id="Layer_1-2" data-name="Layer 1">
    <path class="cls-1" d="m17.73,35.46c3.91,0,7.82-1.29,11.04-3.86l15.81,15.81c.39.39.9.59,1.41.59s1.02-.2,1.41-.59c.78-.78.78-2.05,0-2.83l-15.81-15.81c5.55-6.96,5.11-17.15-1.33-23.58C26.92,1.84,22.46,0,17.73,0S8.54,1.84,5.19,5.19c-6.92,6.91-6.92,18.17,0,25.08,3.46,3.46,8,5.19,12.54,5.19ZM8.01,8.02c2.59-2.59,6.04-4.02,9.71-4.02s7.12,1.43,9.71,4.02c5.35,5.35,5.35,14.07,0,19.42-5.36,5.35-14.07,5.36-19.42,0-5.35-5.36-5.35-14.07,0-19.42Z"/>
  </g>
</svg>