<?xml version="1.0" encoding="UTF-8"?>
<svg  data-name="Layer 2" xmlns="http://www.w3.org/2000/svg" viewBox="0 0 15.85 15.85">
  <defs>
    <style>
      .cls-1 {
        fill: #f3f0ee;
        stroke-width: 0px;
      }
    </style>
  </defs>
  <g  data-name="Layer 1">
    <path class="cls-1" d="m7.93,0C3.55,0,0,3.55,0,7.93s3.55,7.93,7.93,7.93,7.93-3.55,7.93-7.93S12.3,0,7.93,0Zm6.79,7.36h-2.26c-.04-1.12-.26-2.23-.65-3.28.4-.22.78-.47,1.13-.76,1.03,1.11,1.66,2.53,1.78,4.04Zm-6.23,7.36h0v-2.77c.62.05,1.23.19,1.82.41-.46.89-1.07,1.69-1.82,2.37Zm2.83-1.88c.26.15.5.31.74.49-.49.38-1.04.69-1.61.93.33-.45.63-.94.88-1.44v.03Zm-5.79-.49c.59-.23,1.2-.38,1.83-.44v2.8h0c-.75-.68-1.36-1.49-1.82-2.39v.03Zm-.15,1.9c-.58-.24-1.12-.55-1.61-.93.23-.18.48-.34.74-.49.26.49.55.95.89,1.39v.03ZM7.36,1.16h0v2.8c-.62-.05-1.23-.19-1.82-.41.46-.9,1.07-1.71,1.82-2.39Zm-2.83,1.88c-.26-.15-.5-.31-.74-.49.49-.38,1.04-.69,1.61-.93-.33.45-.63.92-.88,1.42Zm5.79.49c-.59.23-1.2.38-1.83.44V1.16h0c.74.67,1.36,1.47,1.82,2.37h.01Zm.15-1.9c.58.24,1.12.55,1.61.93-.23.18-.48.34-.74.49-.25-.5-.55-.97-.89-1.42h.01Zm-3.11,3.47v2.26h-2.83c.05-.95.24-1.89.57-2.79.72.29,1.49.46,2.26.53Zm0,3.4v2.29c-.78.05-1.54.22-2.26.5-.32-.9-.51-1.84-.57-2.79h2.83Zm1.13,2.29v-2.29h2.83c-.05.95-.24,1.89-.57,2.79-.73-.28-1.49-.44-2.26-.5Zm0-3.42v-2.26c.78-.05,1.54-.22,2.26-.5.32.89.51,1.82.57,2.76h-2.83ZM2.94,3.32c.35.29.73.54,1.13.76-.4,1.05-.63,2.16-.68,3.28H1.13c.13-1.51.77-2.93,1.81-4.04Zm-1.78,5.17h2.24c.04,1.12.26,2.23.65,3.28-.4.22-.78.47-1.13.76-1.02-1.11-1.64-2.53-1.75-4.04Zm11.75,4.04c-.35-.29-.73-.54-1.13-.76.4-1.05.63-2.16.68-3.28h2.26c-.13,1.51-.77,2.93-1.81,4.04Z"/>
  </g>
</svg>