<?xml version="1.0" encoding="UTF-8"?>
<svg  data-name="Layer 2" xmlns="http://www.w3.org/2000/svg" viewBox="0 0 45.24 45.24">
  <defs>
    <style>
      .cls-1 {
        fill: #060326;
        stroke-width: 0px;
      }
    </style>
  </defs>
  <g  data-name="Layer 1">
    <path class="cls-1" d="m17.6,0C7.9,0,0,7.9,0,17.6s7.9,17.6,17.6,17.6,17.6-7.9,17.6-17.6S27.3,0,17.6,0Zm0,3.52c7.8,0,14.08,6.28,14.08,14.08s-6.28,14.08-14.08,14.08S3.52,25.4,3.52,17.6,9.8,3.52,17.6,3.52Zm-1.76,5.28v7.04h-7.04v3.52h7.04v7.04h3.52v-7.04h7.04v-3.52h-7.04v-7.04h-3.52Zm17.86,22.41c-.76.9-1.59,1.73-2.49,2.49l11.54,11.54,2.49-2.49-11.54-11.54Z"/>
  </g>
</svg>