<?xml version="1.0" encoding="UTF-8"?>
<svg  data-name="Layer 2" xmlns="http://www.w3.org/2000/svg" viewBox="0 0 45.05 45.05">
  <defs>
    <style>
      .cls-1 {
        fill: #060326;
        stroke-width: 0px;
      }
    </style>
  </defs>
  <g  data-name="Layer 1">
    <path class="cls-1" d="m17.53,0C7.87,0,0,7.87,0,17.53s7.87,17.53,17.53,17.53,17.53-7.87,17.53-17.53S27.18,0,17.53,0Zm0,3.51c7.76,0,14.02,6.26,14.02,14.02s-6.26,14.02-14.02,14.02S3.51,25.29,3.51,17.53,9.76,3.51,17.53,3.51Zm-8.76,12.27v3.51h17.53v-3.51H8.76Zm24.8,15.31c-.76.89-1.59,1.72-2.48,2.48l11.49,11.49,2.48-2.48-11.49-11.49Z"/>
  </g>
</svg>