<svg xmlns:dc="http://purl.org/dc/elements/1.1/" xmlns:cc="http://creativecommons.org/ns#" xmlns:rdf="http://www.w3.org/1999/02/22-rdf-syntax-ns#" xmlns:svg="http://www.w3.org/2000/svg" xmlns="http://www.w3.org/2000/svg" xmlns:sodipodi="http://sodipodi.sourceforge.net/DTD/sodipodi-0.dtd" xmlns:inkscape="http://www.inkscape.org/namespaces/inkscape" viewBox="0 0 8.4666667 10.583333374999999" version="1.1" x="0px" y="0px"><g transform="translate(0,-288.53333)"><path style="color:#000000;font-style:normal;font-variant:normal;font-weight:normal;font-stretch:normal;font-size:medium;line-height:normal;font-family:sans-serif;font-variant-ligatures:normal;font-variant-position:normal;font-variant-caps:normal;font-variant-numeric:normal;font-variant-alternates:normal;font-feature-settings:normal;text-indent:0;text-align:start;text-decoration:none;text-decoration-line:none;text-decoration-style:solid;text-decoration-color:#000000;letter-spacing:normal;word-spacing:normal;text-transform:none;writing-mode:lr-tb;direction:ltr;text-orientation:mixed;dominant-baseline:auto;baseline-shift:baseline;text-anchor:start;white-space:normal;shape-padding:0;clip-rule:nonzero;display:inline;overflow:visible;visibility:visible;opacity:1;isolation:auto;mix-blend-mode:normal;color-interpolation:sRGB;color-interpolation-filters:linearRGB;solid-color:#000000;solid-opacity:1;vector-effect:none;fill:#000000;fill-opacity:1;fill-rule:nonzero;stroke:none;stroke-width:0.5291667;stroke-linecap:butt;stroke-linejoin:miter;stroke-miterlimit:4;stroke-dasharray:none;stroke-dashoffset:0;stroke-opacity:1;color-rendering:auto;image-rendering:auto;shape-rendering:auto;text-rendering:auto;enable-background:accumulate" d="m 3.4395828,289.32707 c -1.4581187,0 -2.64583334,1.18772 -2.64583334,2.64584 0,1.45812 1.18771464,2.64583 2.64583334,2.64583 1.4581188,0 2.6458334,-1.18771 2.6458334,-2.64583 0,-1.45812 -1.1877146,-2.64584 -2.6458334,-2.64584 z m 0,0.52917 c 1.172136,0 2.1166667,0.94453 2.1166667,2.11667 0,1.17213 -0.9445307,2.11666 -2.1166667,2.11666 -1.1721359,0 -2.1166667,-0.94453 -2.1166667,-2.11666 0,-1.17214 0.9445308,-2.11667 2.1166667,-2.11667 z m -1.3229166,1.85208 v 0.52917 h 2.6458333 v -0.52917 z m 3.7434414,2.31098 c -0.1142762,0.13482 -0.2393103,0.25986 -0.3741367,0.37413 l 1.7352936,1.7353 0.3741367,-0.37414 z"/></g><text x="0" y="23.466666699999998" fill="#000000" font-size="5px" font-weight="bold" font-family="'Helvetica Neue', Helvetica, Arial-Unicode, Arial, Sans-serif">Created by Nawicon</text><text x="0" y="28.466666699999998" fill="#000000" font-size="5px" font-weight="bold" font-family="'Helvetica Neue', Helvetica, Arial-Unicode, Arial, Sans-serif">from the Noun Project</text></svg>